<svg width="60" height="60" viewBox="0 0 60 60" fill="none" xmlns="http://www.w3.org/2000/svg">
<g clip-path="url(#clip0_1886_14003)">
<path fill-rule="evenodd" clip-rule="evenodd" d="M26.7876 0.15324C8.14545 2.99469 1.59139 26.7148 16.1523 38.6442C16.6499 39.0518 16.6499 39.0518 13.8931 46.9619C10.3944 57.0016 10.2471 55.9999 15.1455 55.4792C18.5035 55.1223 18.5035 55.1223 20.9849 57.5166C23.542 59.9841 23.985 60.2885 24.3511 59.8292C24.4179 59.7453 25.7048 56.1304 27.211 51.7959C30.4694 42.4187 29.5495 42.4187 32.8099 51.7959C34.3169 56.1304 35.6041 59.7453 35.6705 59.8292C36.0344 60.2893 36.479 59.9838 39.0382 57.5143C41.5221 55.1175 41.5221 55.1175 44.9361 55.4813C49.7905 55.9988 49.6441 57.0501 46.1236 46.9514C43.3697 39.0518 43.3697 39.0518 43.8677 38.6442C60.8436 24.7515 48.4623 -3.15051 26.7876 0.15324Z" fill="#E4E4E4"/>
<path fill-rule="evenodd" clip-rule="evenodd" d="M26.7876 0.152399C8.14526 2.99384 1.59155 26.7128 16.1522 38.6433C16.6497 39.0509 16.6497 39.0509 15 43.797C12.7148 50.3717 12.4976 50.9943 11.7721 53.0542C10.7254 56.0258 10.6494 55.9638 14.7758 55.5067C16.4194 55.3246 17.9487 55.1747 18.1743 55.1735C18.5505 55.1713 18.7886 55.3699 21.0454 57.5661C24.1582 60.5954 24.1513 60.5934 24.8296 58.6212C24.9626 58.2345 25.3842 57.0216 25.7666 55.9259C26.149 54.8302 27.2465 51.6793 28.2055 48.924C30.2413 43.075 29.9205 43.4904 30.6938 45.7014C31.9778 49.3728 32.2431 50.1343 33.2147 52.9376C35.8305 60.4846 35.6165 59.9702 36.1374 59.9655C36.4673 59.9624 36.8203 59.6641 38.9751 57.5679C41.2265 55.3777 41.4709 55.1739 41.8462 55.1743C42.0717 55.1745 43.6274 55.3254 45.3032 55.5098C49.2237 55.941 49.2548 55.9266 48.5716 53.9834C48.0021 52.3642 46.6349 48.4401 45.6553 45.6134C45.1192 44.0665 44.3858 41.9572 44.0256 40.9259C43.3707 39.0509 43.3707 39.0509 43.8682 38.6433C60.84 24.7389 48.4635 -3.15159 26.7876 0.152399Z" fill="#CE7430"/>
<path fill-rule="evenodd" clip-rule="evenodd" d="M26.7873 0.152971C5.75707 3.3584 1.28074 31.5269 20.2637 41.2046C32.5434 47.465 47.8162 40.5219 51.1649 27.157C54.9561 12.0261 42.127 -2.18515 26.7873 0.152971Z" fill="#E4E4E4"/>
<path fill-rule="evenodd" clip-rule="evenodd" d="M26.7873 0.152971C5.75707 3.3584 1.28074 31.5269 20.2637 41.2046C32.5434 47.465 47.8162 40.5219 51.1649 27.157C54.9561 12.0261 42.127 -2.18515 26.7873 0.152971Z" fill="#FFFF00"/>
<path fill-rule="evenodd" clip-rule="evenodd" d="M26.7875 0.145977C5.72551 3.49203 1.27192 31.5221 20.2639 41.2044C33.6209 48.014 49.8309 39.3173 51.6841 24.3473C53.4376 10.1829 40.8192 -2.08328 26.7875 0.145977Z" fill="#FF9838"/>
<path fill-rule="evenodd" clip-rule="evenodd" d="M28.6627 4.66456C14.6274 5.7646 7.81471 22.5518 17.1333 33.0743C27.2117 44.4546 45.681 38.2415 47.1297 22.9833C47.9711 14.1205 40.6434 5.3562 31.8603 4.7201C31.3263 4.68143 30.652 4.63245 30.3619 4.61124C30.0719 4.59003 29.3072 4.61405 28.6627 4.66456ZM31.4402 10.6471C36.1428 11.642 38.3662 17.6821 35.3495 21.2671C34.9734 21.7142 34.9632 21.6421 35.5174 22.4539C39.3596 28.0828 33.4666 35.0854 27.1979 32.3397C23.3858 30.67 21.8962 24.6783 25.1643 24.1603C26.3784 23.968 27.6553 25.0554 27.664 26.2893C27.6752 27.863 29.2652 29.0353 30.7253 28.5464C33.3078 27.6817 32.6585 23.8751 29.9285 23.8751C27.0827 23.8751 27.3103 19.9548 30.1796 19.5484C31.6141 19.3453 32.2955 18.5883 32.2955 17.1976C32.2955 14.1287 28.0511 14.0362 27.6715 17.0969C27.2899 20.1746 23.3237 20.1238 23.3324 17.0413C23.344 12.9809 27.3897 9.79022 31.4402 10.6471Z" fill="#CE7430"/>
</g>
<defs>
<clipPath id="clip0_1886_14003">
<rect width="60" height="60" fill="white"/>
</clipPath>
</defs>
</svg>
