<svg width="24" height="24" viewBox="0 0 24 24" fill="none" xmlns="http://www.w3.org/2000/svg">
<path fill-rule="evenodd" clip-rule="evenodd" d="M3.70626 5.08126C2.90245 5.31583 2.27649 5.95532 2.06976 6.7532C1.97675 7.11204 1.97675 17.5778 2.06976 17.9366C2.28036 18.7494 2.94148 19.4105 3.7543 19.6212C4.11454 19.7145 19.8855 19.7145 20.2457 19.6212C21.0585 19.4105 21.7196 18.7494 21.9302 17.9366C22.0233 17.5778 22.0233 7.11204 21.9302 6.7532C21.7196 5.94038 21.0585 5.27926 20.2457 5.06866C19.8625 4.96936 4.04839 4.98142 3.70626 5.08126ZM18.456 7.31987C17.9001 7.73311 16.2245 8.97971 14.7324 10.0901C11.5158 12.4838 12.4842 12.4838 9.26763 10.0901C7.77554 8.97971 6.09989 7.73311 5.54396 7.31987L4.53321 6.56855H12H19.4668L18.456 7.31987ZM7.91206 11.0901C12.5848 14.5645 11.5011 14.8383 20.2849 7.96382L20.4321 7.84856L20.4215 12.6824L20.4108 17.5163L20.3024 17.7006C20.2322 17.8202 20.1293 17.9231 20.0097 17.9934L19.8254 18.1017H12H4.17461L3.99027 17.9934C3.87073 17.9231 3.76781 17.8202 3.69755 17.7006L3.58917 17.5163L3.57851 12.6824L3.56786 7.84856L3.71512 7.96382C3.7961 8.0272 5.68473 9.43405 7.91206 11.0901Z" fill="white"/>
</svg>
