<svg width="24" height="24" viewBox="0 0 24 24" fill="none" xmlns="http://www.w3.org/2000/svg">
<path d="M4.75454 10.9194C9.26425 8.91339 12.2714 7.59084 13.7761 6.95179C18.0721 5.12738 18.9648 4.81044 19.5467 4.79991C19.6746 4.79771 19.9608 4.83008 20.1461 4.98361C20.3026 5.11329 20.3457 5.28846 20.3663 5.41136C20.3869 5.53433 20.4125 5.81437 20.3921 6.03316C20.1593 8.53067 19.152 14.5915 18.6395 17.3888C18.4226 18.5724 17.9957 18.9693 17.5823 19.0081C16.684 19.0925 16.0018 18.402 15.1317 17.8196C13.7701 16.9084 13.001 16.3411 11.6794 15.4519C10.1521 14.4242 11.1422 13.8594 12.0126 12.9363C12.2404 12.6948 16.1985 9.01884 16.2752 8.68543C16.2847 8.64369 16.2936 8.48822 16.2032 8.40616C16.1127 8.3241 15.9792 8.35214 15.8829 8.37443C15.7463 8.40609 13.5713 9.87396 9.35768 12.778C8.74028 13.2109 8.1811 13.4217 7.68007 13.4107C7.12774 13.3985 6.06527 13.0919 5.27541 12.8297C4.30663 12.5081 3.53663 12.3382 3.60368 11.7921C3.6386 11.5077 4.02221 11.2168 4.75454 10.9194Z" fill="white"/>
</svg>
