<svg width="60" height="60" viewBox="0 0 60 60" fill="none" xmlns="http://www.w3.org/2000/svg">
<g clip-path="url(#clip0_1886_14034)">
<path fill-rule="evenodd" clip-rule="evenodd" d="M26.7876 0.246013C8.14545 3.08746 1.59139 26.8076 16.1523 38.7369C16.6499 39.1445 16.6499 39.1445 13.8931 47.0547C10.3944 57.0944 10.2471 56.0927 15.1455 55.572C18.5035 55.215 18.5035 55.215 20.9849 57.6094C23.542 60.0769 23.985 60.3812 24.3511 59.922C24.4179 59.8381 25.7048 56.2232 27.211 51.8887C30.4694 42.5114 29.5495 42.5114 32.8099 51.8887C34.3169 56.2232 35.6041 59.8381 35.6704 59.922C36.0344 60.3821 36.479 60.0764 39.0376 57.6075C41.521 55.2113 41.521 55.2113 44.8769 55.5701C49.7761 56.0939 49.6291 57.0945 46.128 47.0547C43.3697 39.1445 43.3697 39.1445 43.8677 38.7369C60.8436 24.8443 48.4623 -3.05774 26.7876 0.246013Z" fill="#FFFF00"/>
<path fill-rule="evenodd" clip-rule="evenodd" d="M27.5495 0.140118C25.7376 0.421251 24.9453 0.582032 23.9615 0.868438C7.13621 5.76652 2.63961 27.3739 16.0926 38.6799C16.6476 39.1462 16.6476 39.1462 13.8921 47.0557C10.3947 57.0945 10.2473 56.0929 15.1456 55.5723C18.5036 55.2153 18.5036 55.2153 20.985 57.6097C23.5421 60.0772 23.9851 60.3815 24.3512 59.9223C24.418 59.8384 25.7049 56.2235 27.2111 51.8889C30.4695 42.5117 29.5496 42.5117 32.81 51.8889C34.317 56.2235 35.6042 59.8384 35.6705 59.9223C36.0345 60.3823 36.4791 60.0767 39.0377 57.6078C41.5211 55.2116 41.5211 55.2116 44.877 55.5704C49.7762 56.0942 49.6292 57.0948 46.1281 47.055C43.3698 39.1448 43.3698 39.1448 43.8678 38.7377C60.4416 25.1906 48.4781 -3.10644 27.5495 0.140118Z" fill="#FFE27A"/>
<path fill-rule="evenodd" clip-rule="evenodd" d="M28.6626 4.35157C12.7551 5.9581 7.06909 26.0341 19.8035 35.6314C30.0382 43.3448 45.0773 37.0906 47.0026 24.3203C48.6562 13.3524 39.3943 3.26782 28.6626 4.35157ZM31.9432 10.8434C32.4752 11.101 32.8268 11.5116 33.037 12.121C33.1379 12.4136 33.1701 14.8722 33.1584 21.3788C33.1496 26.2516 33.1199 30.1217 33.0922 29.9792C33.0446 29.7336 33.0232 29.7415 32.6807 30.1317C31.6734 31.2788 29.8243 31.152 29.1076 29.8864C28.8429 29.4189 28.8423 29.4068 28.8398 24.0859C28.8362 16.3156 28.8094 16.0062 28.1867 16.5801C27.1509 17.5348 24.8541 17.302 24.8541 16.2422C24.8541 16.0056 27.3201 11.7693 27.7132 11.3306C28.3917 10.5734 30.8101 10.2949 31.9432 10.8434ZM51.5728 23.0606C47.7119 46.776 12.9535 47.511 8.62382 23.9688C8.5112 23.3565 8.37831 22.75 8.32851 22.6211C8.22081 22.3426 8.28468 24.198 8.40304 24.7891C8.44827 25.0147 8.49785 25.3047 8.5132 25.4336C8.58445 26.0313 8.71581 26.6245 8.82011 26.8197C8.88304 26.9376 8.90777 27.1038 8.87507 27.1891C8.84226 27.2745 8.8514 27.3802 8.89535 27.4242C8.93929 27.468 8.98171 27.5522 8.9898 27.6113C8.99788 27.6704 9.0171 27.7584 9.03257 27.8067C9.08577 27.9727 9.11531 28.1293 9.13312 28.3409C9.14285 28.4575 9.20308 28.5207 9.26683 28.4813C9.33316 28.4403 9.35285 28.4873 9.31288 28.5916C9.27445 28.6917 9.29085 28.7734 9.34933 28.7734C9.40781 28.7734 9.46042 28.892 9.46628 29.0371C9.48128 29.4049 9.9246 30.5261 10.2059 30.9074C10.3346 31.082 10.44 31.3031 10.44 31.3984C10.44 31.494 10.4935 31.6053 10.5591 31.6457C10.6246 31.6863 10.6479 31.7684 10.6107 31.8284C10.5737 31.8884 10.5893 31.9375 10.6455 31.9375C10.7017 31.9375 10.8636 32.2031 11.0053 32.5277C11.147 32.8522 11.3381 33.1467 11.43 33.1819C11.5219 33.2171 11.5684 33.3207 11.5334 33.4121C11.4983 33.5034 11.528 33.5781 11.5993 33.5781C11.6707 33.5781 11.7291 33.6469 11.7291 33.7311C11.7291 33.8151 11.9136 34.0854 12.1392 34.3317C12.3648 34.578 12.5494 34.8429 12.5494 34.9206C12.5494 34.9982 12.8191 35.3343 13.1489 35.6676C13.4787 36.0008 13.7116 36.2734 13.6668 36.2734C13.571 36.2734 15.31 38.029 15.4417 38.0652C15.4908 38.0788 15.6731 38.2288 15.8468 38.3986C16.0206 38.5685 16.2779 38.7882 16.4187 38.8867C16.6747 39.066 16.6747 39.066 13.9004 47.0376C10.3975 57.1027 10.25 56.0923 15.1455 55.572C18.5035 55.215 18.5035 55.215 20.9849 57.6094C23.542 60.0769 23.985 60.3813 24.3511 59.922C24.4179 59.8381 25.7048 56.2232 27.211 51.8887C30.4694 42.5115 29.5495 42.5115 32.8099 51.8887C34.3169 56.2232 35.6041 59.8381 35.6705 59.922C36.0344 60.3821 36.4791 60.0765 39.0376 57.6076C41.521 55.2113 41.521 55.2113 44.8769 55.5701C49.7761 56.094 49.629 57.0945 46.1284 47.0547C43.3486 39.0821 43.2743 38.8516 43.4869 38.8516C43.7105 38.8516 43.7818 38.804 44.1607 38.4023C44.3702 38.1802 44.5415 38.0341 44.5415 38.0775C44.5415 38.1211 44.6665 38.0362 44.8191 37.8889C44.9717 37.7416 45.0741 37.5816 45.0465 37.5332C45.019 37.4848 45.0498 37.4453 45.1151 37.4453C45.2661 37.4453 46.4165 36.3905 46.4165 36.252C46.4165 36.195 46.5748 35.9937 46.7681 35.8047C46.9615 35.6157 47.1197 35.3771 47.1197 35.2744C47.1197 35.1718 47.166 35.1163 47.2226 35.1514C47.3303 35.2179 48.0104 34.2876 47.9657 34.1348C47.9516 34.0864 47.9927 34.0469 48.0572 34.0469C48.1216 34.0469 48.1744 33.9678 48.1744 33.8711C48.1744 33.7744 48.2283 33.6953 48.294 33.6953C48.3599 33.6953 48.4775 33.5502 48.5553 33.3731C48.6333 33.1959 48.7287 33.0244 48.7673 32.9922C48.8061 32.96 48.9653 32.6699 49.1212 32.3477C49.2771 32.0254 49.4348 31.7354 49.4719 31.7031C49.5868 31.6029 49.7359 31.1831 49.7112 31.0293C49.6982 30.9488 49.7514 30.8828 49.8294 30.8828C49.9074 30.8828 49.9359 30.8475 49.8928 30.8044C49.8498 30.7613 49.8977 30.6342 49.9993 30.5218C50.101 30.4094 50.1985 30.2468 50.216 30.1607C50.2335 30.0745 50.3134 29.8457 50.3937 29.6524C50.5399 29.3002 50.6574 28.8386 50.6685 28.5735C50.6717 28.4958 50.7144 28.4569 50.7634 28.4872C50.8124 28.5175 50.9124 28.2383 50.9859 27.8668C51.0594 27.4954 51.1658 27.0332 51.2226 26.8399C51.2794 26.6465 51.3499 26.3201 51.3793 26.1146C51.4087 25.9092 51.4615 25.6948 51.4963 25.6383C51.6051 25.4622 51.8655 22.2109 51.7707 22.2109C51.7379 22.2109 51.649 22.5932 51.5728 23.0606Z" fill="#FFBA57"/>
<path fill-rule="evenodd" clip-rule="evenodd" d="M16.376 39.938C14.3648 45.5165 11.1437 55.0313 11.1701 55.3156C11.2294 55.9547 11.4263 55.9674 15.1465 55.572C18.5045 55.215 18.5045 55.215 20.9858 57.6094C23.543 60.0769 23.9859 60.3813 24.352 59.922C24.4188 59.8381 25.7058 56.2232 27.212 51.8887C28.7181 47.5541 29.9775 44.0078 30.0106 44.0078C30.0437 44.0078 31.3038 47.5541 32.8109 51.8887C34.3179 56.2232 35.6051 59.8381 35.6714 59.922C36.0354 60.3821 36.48 60.0764 39.0386 57.6075C41.522 55.2113 41.522 55.2113 44.8779 55.5701C48.5956 55.9676 48.7921 55.9551 48.8536 55.3156C48.8804 55.038 43.5301 39.3235 43.3463 39.1396C43.3259 39.1193 42.8312 39.4285 42.2469 39.8268C34.9505 44.7993 25.062 44.813 17.8279 39.8607C17.3467 39.5313 16.8919 39.2233 16.8172 39.1763C16.7266 39.1193 16.5798 39.3727 16.376 39.938Z" fill="#FF8080"/>
<path fill-rule="evenodd" clip-rule="evenodd" d="M16.6148 39.2444C15.7005 41.633 11.1373 55.1123 11.1642 55.3452C11.2332 55.9433 11.4887 55.9614 14.7754 55.6002C16.419 55.4196 17.9483 55.2709 18.1739 55.2699C18.5498 55.268 18.7891 55.4672 21.045 57.6616C24.5585 61.0792 23.7557 61.8309 27.2105 51.8887C28.7166 47.5541 29.9766 44.0078 30.0104 44.0078C30.0443 44.0078 30.3971 44.9445 30.7946 46.0893C31.1922 47.2341 32.1051 49.8577 32.8234 51.9194C33.5416 53.981 34.4505 56.5908 34.8431 57.7187C35.9345 60.8536 35.6881 60.857 38.9746 57.6606C41.2273 55.4697 41.4703 55.2672 41.8457 55.268C42.0713 55.2685 43.6006 55.4175 45.2442 55.5991C48.568 55.9663 48.7909 55.9489 48.8526 55.3156C48.881 55.0246 46.4237 47.7662 43.7101 40.1262C43.3511 39.1156 43.3511 39.1156 42.1003 39.9504C34.7451 44.8589 25.215 44.8431 17.8596 39.91C17.1512 39.4349 16.6454 39.1644 16.6148 39.2444Z" fill="#FFE27A"/>
</g>
<defs>
<clipPath id="clip0_1886_14034">
<rect width="60" height="60" fill="white"/>
</clipPath>
</defs>
</svg>
