<svg width="20" height="20" viewBox="0 0 20 20" fill="none" xmlns="http://www.w3.org/2000/svg">
<path d="M14.0507 6C12.9967 6 12.0057 6.41047 11.2753 7.13907L9.99909 8.36407L8.74209 7.15735C7.99703 6.41047 7.00423 6 5.94926 6C4.8943 6 3.90241 6.4123 3.15827 7.15735C2.41138 7.90333 2 8.8943 2 9.95018C2 11.0033 2.41047 11.9961 3.15735 12.7412C3.9015 13.4871 4.89338 13.8985 5.94926 13.8985C7.00331 13.8985 7.99611 13.4881 8.72472 12.7576L10 11.5345L11.2579 12.7412C12.003 13.4871 12.9958 13.8985 14.0507 13.8985C15.1057 13.8985 16.0967 13.4881 16.8417 12.7412C17.5886 11.997 18 11.0042 18 9.94835C18 8.89247 17.5895 7.90241 16.8426 7.15552C16.0958 6.41047 15.1048 6 14.0507 6ZM7.1249 11.124C6.49686 11.7529 5.40258 11.7529 4.77363 11.124C4.45915 10.8095 4.28637 10.3917 4.28637 9.94926C4.28637 9.50497 4.45915 9.08902 4.77545 8.77271C5.0881 8.45823 5.50588 8.28545 5.94926 8.28545C6.39264 8.28545 6.81042 8.45823 7.14227 8.78917L8.3499 9.95018L7.1249 11.124ZM15.2255 11.124C14.5974 11.7539 13.5196 11.7685 12.8577 11.1075L11.6501 9.94652L12.8742 8.7718C13.5031 8.14284 14.5983 8.14284 15.2264 8.76997C15.5409 9.08628 15.7136 9.50223 15.7136 9.94652C15.7136 10.3908 15.5399 10.8095 15.2255 11.124Z" fill="#4BB14B"/>
</svg>
