<svg width="296" height="598" viewBox="0 0 296 598" fill="none" xmlns="http://www.w3.org/2000/svg">
<path d="M0 117.355C0 116.228 0.913957 115.314 2.04138 115.314V137.764C0.913957 137.764 0 136.851 0 135.724V117.355Z" fill="#191C1F"/>
<path d="M0 160.215C0 159.088 0.913957 158.174 2.04138 158.174V203.075C0.913957 203.075 0 202.161 0 201.034V160.215Z" fill="#191C1F"/>
<path d="M0 218.382C0 217.255 0.913957 216.341 2.04138 216.341V261.242C0.913957 261.242 0 260.329 0 259.201V218.382Z" fill="#191C1F"/>
<path d="M293.959 189.809C295.086 189.809 296 190.723 296 191.85V259.201C296 260.329 295.086 261.242 293.959 261.242V189.809Z" fill="#191C1F"/>
<path fill-rule="evenodd" clip-rule="evenodd" d="M51.0345 0C23.9763 0 2.04138 21.9304 2.04138 48.9829V549.017C2.04138 576.07 23.9763 598 51.0345 598H244.965C272.024 598 293.959 576.07 293.959 549.017V48.9829C293.959 21.9304 272.024 0 244.965 0H51.0345ZM243.945 9.1843H52.0552C29.5067 9.1843 11.2276 27.4596 11.2276 50.0034V547.997C11.2276 570.54 29.5067 588.816 52.0552 588.816H243.945C266.493 588.816 284.772 570.54 284.772 547.997V50.0034C284.772 27.4596 266.493 9.1843 243.945 9.1843Z" fill="#191C1F"/>
<path d="M106.152 32.6553C106.152 26.4558 111.178 21.43 117.379 21.43H178.621C184.822 21.43 189.848 26.4558 189.848 32.6553C189.848 38.8548 184.822 43.8805 178.621 43.8805H117.379C111.178 43.8805 106.152 38.8548 106.152 32.6553Z" fill="#191C1F"/>
<path fill-rule="evenodd" clip-rule="evenodd" d="M293.959 0H2.04138V598H293.959V0ZM243.945 9.1843H52.0552C29.5067 9.1843 11.2276 27.4596 11.2276 50.0034V547.997C11.2276 570.54 29.5067 588.816 52.0552 588.816H243.945C266.493 588.816 284.772 570.54 284.772 547.997V50.0034C284.772 27.4596 266.493 9.1843 243.945 9.1843ZM117.379 21.43H178.621C184.822 21.43 189.848 26.4558 189.848 32.6553C189.848 38.8548 184.822 43.8805 178.621 43.8805H117.379C111.178 43.8805 106.152 38.8548 106.152 32.6553C106.152 26.4558 111.178 21.43 117.379 21.43Z" fill="white"/>
<path d="M0 117.355C0 116.228 0.913957 115.314 2.04138 115.314V137.764C0.913957 137.764 0 136.851 0 135.724V117.355Z" fill="#191C1F"/>
<path d="M0 160.215C0 159.088 0.913957 158.174 2.04138 158.174V203.075C0.913957 203.075 0 202.161 0 201.034V160.215Z" fill="#191C1F"/>
<path d="M0 218.382C0 217.255 0.913957 216.341 2.04138 216.341V261.242C0.913957 261.242 0 260.329 0 259.201V218.382Z" fill="#191C1F"/>
<path d="M293.959 189.809C295.086 189.809 296 190.723 296 191.85V259.201C296 260.329 295.086 261.242 293.959 261.242V189.809Z" fill="#191C1F"/>
<path fill-rule="evenodd" clip-rule="evenodd" d="M51.0345 0C23.9763 0 2.04138 21.9304 2.04138 48.9829V549.017C2.04138 576.07 23.9763 598 51.0345 598H244.965C272.024 598 293.959 576.07 293.959 549.017V48.9829C293.959 21.9304 272.024 0 244.965 0H51.0345ZM243.945 9.1843H52.0552C29.5067 9.1843 11.2276 27.4596 11.2276 50.0034V547.997C11.2276 570.54 29.5067 588.816 52.0552 588.816H243.945C266.493 588.816 284.772 570.54 284.772 547.997V50.0034C284.772 27.4596 266.493 9.1843 243.945 9.1843Z" fill="#191C1F"/>
<path d="M106.152 32.6553C106.152 26.4558 111.178 21.43 117.379 21.43H178.621C184.822 21.43 189.848 26.4558 189.848 32.6553C189.848 38.8548 184.822 43.8805 178.621 43.8805H117.379C111.178 43.8805 106.152 38.8548 106.152 32.6553Z" fill="#191C1F"/>
</svg>
