<svg width="40" height="40" viewBox="0 0 40 40" fill="none" xmlns="http://www.w3.org/2000/svg">
<g clip-path="url(#clip0_1886_14063)">
<path fill-rule="evenodd" clip-rule="evenodd" d="M10.2166 0.116398C8.78117 0.464211 7.63672 1.58304 7.17492 3.09007C7.0375 3.53843 7.03125 4.23773 7.03125 19.1838V34.8088L7.2043 35.359C7.96125 37.7647 9.25352 38.3635 13.6884 38.3635H16.4495L17.4237 39.1838C18.5519 40.1338 18.7905 40.2101 19.2761 39.7762C19.9602 39.165 19.9034 39.0884 16.7451 36.3637C13.8395 33.8571 13.8387 33.8562 14.1143 33.3388C14.384 32.8326 14.6138 32.8551 16.753 33.5979C18.6848 34.2686 18.7566 34.2841 19.1031 34.1049C19.5446 33.8766 19.5281 34.0963 19.5703 27.8684L19.6094 22.0999L19.8286 21.9114C20.249 21.5498 20.9536 21.7111 21.127 22.2084C21.1833 22.37 21.2109 24.0171 21.2109 27.2111V31.9729L21.4766 32.2385C22.4429 33.2048 22.9286 32.398 22.9292 29.8256C22.9298 27.8451 22.953 27.7422 23.436 27.5827C23.764 27.4745 24.0414 27.5434 24.294 27.7959L24.4922 27.9942L24.4927 29.7999C24.4933 32.3791 24.9371 33.1508 25.9167 32.2764L26.1719 32.0487L26.2109 30.4339L26.25 28.8191L26.5052 28.5913C26.7922 28.335 27.1066 28.2975 27.4553 28.4778C27.7871 28.6494 27.8055 28.7421 27.8498 30.4599L27.8906 32.0486L28.1458 32.2763C28.5616 32.6476 29.1639 32.5603 29.433 32.09C29.4939 31.9835 29.5461 31.4776 29.5703 30.7589C29.6197 29.2942 30.172 28.7191 30.8885 29.3866C31.2028 29.6794 31.2109 29.8134 31.2109 34.7045V39.4729L31.4766 39.7385C31.9464 40.2084 32.6798 40.0168 32.8515 39.3794C33.0136 38.7774 32.9176 29.5789 32.7444 29.1257C32.4497 28.3542 31.5701 27.6392 30.7829 27.5313L30.434 27.4835L30.4116 15.4821C30.3903 4.07874 30.3821 3.45929 30.2458 3.05101C29.7406 1.53827 28.6199 0.454601 27.2193 0.124445C26.5373 -0.0363364 10.8774 -0.0437582 10.2166 0.116398ZM12.8657 2.40648C12.9203 3.52921 13.4155 4.33859 14.3209 4.78444L14.6875 4.96507H18.7109H22.7344L23.101 4.78444C24.0063 4.33859 24.5016 3.52921 24.5562 2.40648L24.5895 1.72288L25.6931 1.72296C27.263 1.72304 27.9934 2.10562 28.5016 3.19398L28.6719 3.55882L28.6927 15.4134L28.7134 27.2679L28.3529 27.0393C27.7135 26.6338 27.0221 26.5541 26.2884 26.8012L25.8239 26.9577L25.5095 26.6165C25.012 26.0769 24.4012 25.8416 23.5863 25.8753L22.9297 25.9026V24.633V23.3635H24.6523C26.5497 23.3635 26.7296 23.327 26.9518 22.8973C27.1905 22.4357 26.9822 21.8923 26.4995 21.7177L26.2305 21.6205L26.1898 20.5974C26.0441 16.9323 23.4809 14.0187 19.8633 13.406L19.5703 13.3564V12.8483C19.5703 11.8892 19.0111 11.4048 18.3177 11.7633C17.99 11.9327 17.8516 12.255 17.8516 12.8483V13.3564L17.5586 13.4054C13.945 14.0097 11.378 16.9279 11.232 20.5974L11.1914 21.6205L10.9223 21.7177C10.4397 21.8923 10.2313 22.4357 10.4701 22.8973C10.7108 23.3628 10.7166 23.3635 14.4492 23.3635H17.8516V27.7385C17.8516 30.1448 17.8231 32.1135 17.7883 32.1135C17.7535 32.1135 17.1647 31.9157 16.4797 31.6739C12.7206 30.3468 10.6757 33.3269 13.5976 35.8741L14.4368 36.6057L12.6538 36.6267C10.1684 36.656 9.62055 36.4532 9.02344 35.2825L8.75 34.7465V19.1526V3.55882L8.92031 3.19398C9.42844 2.10562 10.1589 1.72304 11.7288 1.72296L12.8324 1.72288L12.8657 2.40648ZM22.8386 2.31726C22.8116 2.85202 22.7868 2.93038 22.5913 3.09851L22.3741 3.28538H18.7109H15.0478L14.8305 3.09851C14.6351 2.93038 14.6102 2.85202 14.5833 2.31726L14.5532 1.72288H18.7109H22.8687L22.8386 2.31726ZM20.2639 15.2411C22.7545 15.9313 24.3761 18.0142 24.4738 20.6487L24.5106 21.6448H23.6148H22.7191L22.5773 21.3305C21.7986 19.6036 19.0464 19.6026 18.1657 21.3291L18.0046 21.6448H15.4579H12.9113L12.9481 20.6487C13.0895 16.8356 16.6148 14.2299 20.2639 15.2411Z" fill="#FF7A00"/>
</g>
<defs>
<clipPath id="clip0_1886_14063">
<rect width="40" height="40" fill="white"/>
</clipPath>
</defs>
</svg>
