<svg width="40" height="40" viewBox="0 0 40 40" fill="none" xmlns="http://www.w3.org/2000/svg">
<path fill-rule="evenodd" clip-rule="evenodd" d="M12.9952 3.10137C11.0569 3.58516 10.286 4.82449 10.286 7.4565V8.93038L6.89018 8.95175L3.49441 8.97313L2.93772 9.24071C2.03033 9.67693 1.36164 10.4716 1.11143 11.4114C0.956966 11.9915 0.965576 17.9139 1.12182 18.5768C1.26507 19.1845 1.7289 20.0748 2.1571 20.5641L2.49238 20.9473V27.3305C2.49238 33.3869 2.49958 33.737 2.63303 34.1656C2.98886 35.3091 3.98199 36.2161 5.14954 36.4641C5.70897 36.5828 34.3098 36.5828 34.8692 36.4641C36.0441 36.2146 37.0277 35.3163 37.3857 34.1656C37.5192 33.737 37.5264 33.3869 37.5264 27.3305V20.9473L37.8652 20.5641C38.8825 19.4138 39.0111 18.7806 39.01 14.926C39.009 11.1334 38.9585 10.8636 38.0779 9.94465C37.1492 8.97535 36.9515 8.93602 33.0073 8.93602H29.7454L29.7171 7.32163C29.6744 4.87036 29.0604 3.79322 27.3576 3.18175C26.8446 2.99753 13.7058 2.92405 12.9952 3.10137ZM26.8971 5.46572C27.4238 5.81428 27.4656 5.9602 27.4933 7.5443L27.5176 8.93602H20.0152H12.5127V7.61571C12.5127 5.04472 11.8904 5.23614 20.2004 5.25069L26.5892 5.2619L26.8971 5.46572ZM36.1854 11.3088C36.7821 11.6131 36.7937 11.6876 36.7688 15.0711L36.747 18.0285L36.546 18.4576C35.5132 20.6616 30.5093 22.5608 24.5556 23.0084L23.8691 23.06L23.8688 22.3998C23.8682 20.9611 23.8679 20.9609 20.0094 20.9609C16.1556 20.9609 16.1506 20.9628 16.15 22.3892L16.1497 23.0387H15.9238C10.9857 23.0387 4.50178 20.6539 3.47363 18.4594L3.27173 18.0285L3.24999 15.0711C3.2252 11.7062 3.23848 11.6183 3.81751 11.3123C4.24757 11.0851 35.7403 11.0816 36.1854 11.3088ZM7.04435 23.5903C9.11752 24.3623 11.5901 24.8708 14.9902 25.2247C15.5977 25.2879 16.1185 25.3397 16.1476 25.3397C16.1766 25.3397 16.2429 25.4816 16.2947 25.6551C17.349 29.1806 22.6835 29.1841 23.7237 25.6599L23.8155 25.3492L24.3062 25.3034C28.6856 24.8942 32.0751 24.1181 34.5403 22.9603L35.3025 22.6023L35.2825 28.0851C35.26 34.2556 35.3063 33.7771 34.6981 34.1353C34.4484 34.2824 34.3126 34.2837 20.0094 34.2837C5.70615 34.2837 5.5704 34.2824 5.3207 34.1353C4.71251 33.7771 4.75875 34.2551 4.73626 28.0882L4.71629 22.6086L5.51562 22.9637C5.95525 23.1589 6.64316 23.4408 7.04435 23.5903ZM21.6306 24.0964C21.5479 26.8823 18.4709 26.8823 18.3882 24.0964L18.3612 23.1871H20.0094H21.6576L21.6306 24.0964Z" fill="#FF7A00"/>
</svg>
