<svg width="40" height="40" viewBox="0 0 40 40" fill="none" xmlns="http://www.w3.org/2000/svg">
<path fill-rule="evenodd" clip-rule="evenodd" d="M19.4508 2.65773C18.7514 3.08406 18.7092 6.94461 19.398 7.48633C20.4447 8.30969 20.9984 7.47633 20.9984 5.07758C20.9984 2.88883 20.8452 2.5 19.9828 2.5C19.8324 2.5 19.593 2.57102 19.4508 2.65773ZM7.39476 7.63102C6.52375 8.17156 6.68336 8.60938 8.36406 10.2901C9.935 11.861 10.0538 11.928 10.6885 11.5997C11.5906 11.1332 11.3984 10.5995 9.72656 8.92758L8.29844 7.49945L7.94922 7.50156C7.75711 7.50266 7.50766 7.56094 7.39476 7.63102ZM30.2391 8.92758C28.6681 10.4985 28.6012 10.6173 28.9295 11.252C29.3778 12.1191 30.0104 11.9277 31.4948 10.4756C33.2273 8.78094 33.4591 8.15961 32.5578 7.62727C31.9588 7.27336 31.8095 7.35711 30.2391 8.92758ZM18.7487 10.4762C10.3621 11.6098 6.93703 21.4741 12.7774 27.6735C14.2848 29.2737 14.4445 29.7538 14.5113 32.8901C14.5758 35.9184 14.8105 36.5118 16.2177 37.2046L16.7373 37.4604H19.9812H23.225L23.6717 37.251C24.2988 36.9571 24.8575 36.4076 25.1595 35.7877L25.4102 35.2729L25.4552 32.9291C25.5165 29.7445 25.6812 29.2576 27.2563 27.6042C33.8209 20.7134 28.1077 9.21117 18.7487 10.4762ZM22.0531 12.6556C28.1451 14.2895 30.143 21.7209 25.7288 26.3276C24.3566 27.7596 23.4984 29.5502 23.4984 30.9811V31.2495H22.2477H20.997L21.0173 27.0973L21.0375 22.9451L21.5285 22.8107C22.603 22.5166 23.9395 21.6117 24.1236 21.0535C24.4555 20.0479 23.2013 19.2737 22.4815 20.0399C21.6765 20.8968 20.0353 21.2666 18.849 20.8585C18.3406 20.6836 17.7638 20.3377 17.4841 20.0399C16.7643 19.2737 15.5101 20.0479 15.842 21.0535C16.0264 21.6124 17.3666 22.5148 18.4594 22.8159L18.9281 22.9451L18.9484 27.0973L18.9686 31.2495H17.7291H16.4898L16.4426 30.7612C16.2845 29.1275 15.626 27.8105 14.2083 26.2927C8.53172 20.2155 14.1066 10.5244 22.0531 12.6556ZM2.56367 19.6327C1.77141 19.9056 1.74281 21.1243 2.52109 21.4495C2.90008 21.6078 6.11875 21.6117 6.49562 21.4542C7.34781 21.0981 7.28578 19.8566 6.40359 19.6116C5.99547 19.4982 2.90477 19.5153 2.56367 19.6327ZM33.5245 19.6164C32.677 19.8618 32.6402 21.1075 33.47 21.4542C33.8359 21.6071 37.0661 21.6082 37.4267 21.4555C38.2337 21.114 38.2173 19.9136 37.402 19.6327C37.0769 19.5208 33.901 19.5074 33.5245 19.6164ZM8.36406 30.8026C6.79359 32.373 6.70984 32.5223 7.06375 33.1213C7.57078 33.9797 8.12523 33.8125 9.61976 32.3506C11.3523 30.6559 11.5841 30.0346 10.6828 29.5023C10.0838 29.1484 9.93453 29.2321 8.36406 30.8026ZM29.2698 29.506C28.3978 30.0471 28.5756 30.5372 30.2569 32.226C31.8436 33.8198 32.3817 34.002 32.9019 33.1213C33.2558 32.5223 33.172 32.373 31.6016 30.8026L30.1734 29.3745L29.8242 29.3766C29.6322 29.3777 29.3827 29.4359 29.2698 29.506ZM23.4853 34.0598C23.4262 35.5322 23.3934 35.5461 19.9828 35.5461C16.5722 35.5461 16.5395 35.5322 16.4803 34.0598L16.449 33.2807H19.9828H23.5166L23.4853 34.0598Z" fill="#FF7A00"/>
</svg>
