<svg width="40" height="40" viewBox="0 0 40 40" fill="none" xmlns="http://www.w3.org/2000/svg">
<g clip-path="url(#clip0_1886_15307)">
<path fill-rule="evenodd" clip-rule="evenodd" d="M2.59666 0.132448C1.44541 0.441823 0.440098 1.46128 0.136348 2.62737C-0.0454492 3.32526 -0.0454492 36.6892 0.136348 37.3871C0.444863 38.5714 1.45018 39.5785 2.63072 39.886C3.33721 40.07 27.1649 40.07 27.8713 39.886C29.0553 39.5777 30.0593 38.5739 30.3649 37.3932C30.4679 36.9953 30.4854 36.1367 30.4854 31.4945V26.0614L34.8642 21.6867C39.4778 17.0774 39.6721 16.8559 39.9078 15.9367C40.6574 13.0144 37.5575 10.6002 34.8237 11.977C34.6408 12.0691 33.6656 12.9735 32.4971 14.1345L30.4854 16.1333L30.4845 11.2539C30.4832 4.82526 30.7337 5.62432 27.801 2.69167C25.6641 0.554792 25.4078 0.354089 24.5088 0.113542C23.8997 -0.049427 3.20705 -0.0315364 2.59666 0.132448ZM21.1274 5.5094C21.1573 9.79096 20.7403 9.3819 25.0753 9.38206L28.1417 9.38221V13.9315V18.4808L25.4556 21.1776L22.7696 23.8744L21.8917 26.5193C20.7713 29.8949 20.8223 30.5534 22.2042 30.5539C22.6235 30.5542 27.6301 28.8613 27.9121 28.6239L28.1456 28.4275L28.1241 32.6492C28.1002 37.3489 28.1365 37.0364 27.5647 37.4633C27.349 37.6244 27.348 37.6244 15.251 37.6244C1.66807 37.6244 3.00447 37.681 2.56057 37.0865L2.39947 36.8707L2.37721 20.2164C2.35338 2.41831 2.34135 3.18159 2.6526 2.81167C3.05588 2.33245 2.5351 2.35737 12.2211 2.35401L21.1053 2.35096L21.1274 5.5094ZM24.1182 2.50081C24.5453 2.70096 27.8589 6.03682 28.0216 6.43049C28.2901 7.08003 28.442 7.03846 25.7979 7.03846H23.4542V4.69471V2.35096L23.6299 2.35268C23.7267 2.35362 23.9463 2.42026 24.1182 2.50081ZM5.33471 11.8628C4.50986 12.2834 4.50986 13.5123 5.33471 13.9328C5.74877 14.144 22.4095 14.144 22.8236 13.9328C23.251 13.7149 23.4151 13.4278 23.4151 12.8978C23.4151 12.3678 23.251 12.0807 22.8236 11.8628C22.4095 11.6517 5.74877 11.6517 5.33471 11.8628ZM36.9174 14.02C37.9316 14.4438 37.8946 15.2994 36.8155 16.3729L36.1102 17.0745L35.2902 16.2573L34.4701 15.44L35.0747 14.8318C35.9288 13.9728 36.3549 13.785 36.9174 14.02ZM5.33471 16.5503C4.50986 16.9709 4.50986 18.1998 5.33471 18.6203C5.74736 18.8308 17.7235 18.8308 18.1361 18.6203C18.5635 18.4024 18.7276 18.1153 18.7276 17.5853C18.7276 17.0553 18.5635 16.7682 18.1361 16.5503C17.7235 16.3399 5.74736 16.3399 5.33471 16.5503ZM33.65 17.9765L34.4288 18.7583L31.6181 21.5698L28.8074 24.3813L28.0114 23.5879L27.2153 22.7946L29.9636 19.9965C33.1594 16.7431 32.6819 17.0047 33.65 17.9765ZM5.33471 21.2378C4.50986 21.6584 4.50986 22.8873 5.33471 23.3078C5.74736 23.5183 17.7235 23.5183 18.1361 23.3078C18.5635 23.0899 18.7276 22.8028 18.7276 22.2728C18.7276 21.7428 18.5635 21.4557 18.1361 21.2378C17.7235 21.0274 5.74736 21.0274 5.33471 21.2378ZM26.7985 26.3897C26.5103 26.6834 24.2321 27.6082 24.1065 27.4825C23.9955 27.3715 24.9453 25.046 25.2139 24.7708L25.5194 24.458L26.322 25.2578L27.1245 26.0576L26.7985 26.3897ZM5.33471 25.9253C4.50986 26.3459 4.50986 27.5748 5.33471 27.9953C5.74736 28.2058 17.7235 28.2058 18.1361 27.9953C18.5635 27.7774 18.7276 27.4903 18.7276 26.9603C18.7276 26.4303 18.5635 26.1432 18.1361 25.9253C17.7235 25.7149 5.74736 25.7149 5.33471 25.9253ZM14.7097 33.1128C14.2823 33.3307 14.1182 33.6178 14.1182 34.1478C14.1182 35.3059 14.1721 35.3195 18.7667 35.3195C22.944 35.3195 22.8864 35.3258 23.2533 34.8257C23.6367 34.3032 23.4135 33.4136 22.8236 33.1128C22.414 32.9039 15.1193 32.9039 14.7097 33.1128Z" fill="#FF7A00"/>
</g>
<defs>
<clipPath id="clip0_1886_15307">
<rect width="40" height="40" fill="white"/>
</clipPath>
</defs>
</svg>
