<svg width="40" height="40" viewBox="0 0 40 40" fill="none" xmlns="http://www.w3.org/2000/svg">
<path fill-rule="evenodd" clip-rule="evenodd" d="M18.4699 1.14408C13.9391 1.95274 10.5698 6.51188 11.1479 11.0519L11.223 11.6417L10.9037 11.9425C9.39017 13.3685 10.4677 17.3082 12.6092 18.1786C13.0146 18.3433 13.0318 18.3626 13.4659 19.1433C13.9804 20.0686 14.2172 20.4239 14.6817 20.9682L15.0188 21.3631V22.5636V23.7641L12.8851 23.8058C7.09272 23.9191 4.99877 26.3376 5.00003 32.9127C5.00055 35.3997 4.95773 35.3164 6.61544 36.0536C15.4965 40.0031 26.0019 39.9661 33.9795 35.9571C35.3532 35.2668 35.244 35.5591 35.2375 32.5915C35.2237 26.2361 33.185 23.9197 27.5058 23.8059L25.4092 23.7639V22.4669V21.17L25.6964 20.8257C26.0559 20.3948 26.8991 19.1084 27.1165 18.6592C27.2539 18.3751 27.3357 18.3016 27.6308 18.1968C29.7293 17.4514 30.8951 13.4545 29.4411 11.9904L29.1161 11.6633L29.1994 11.0627C30.0159 5.17301 24.4945 0.068902 18.4699 1.14408ZM21.5499 3.08767C25.174 3.66299 27.8631 7.55877 27.2034 11.2781L27.1509 11.5746L26.6697 11.6695C23.2248 12.3483 20.1258 10.7831 17.8136 7.1966C17.0674 6.03911 16.1305 6.07637 15.8 7.27668C15.1602 9.60063 14.4955 10.8587 13.6435 11.3581C13.1464 11.6494 13.1251 11.6019 13.1327 10.2171C13.1588 5.44635 16.8285 2.33808 21.5499 3.08767ZM19.2669 11.7494C21.6364 13.552 25.3997 14.3031 28.0253 13.4977C28.3076 13.4111 28.1503 14.5763 27.7673 15.4095C27.4595 16.0791 27.237 16.2881 26.8312 16.2884C26.267 16.2889 26.0711 16.4637 25.5978 17.389C24.4998 19.5355 23.0903 21.1571 21.7424 21.8244L21.0072 22.1884H20.1839H19.3605L18.6183 21.826C17.2911 21.1781 15.8187 19.4909 14.8056 17.4574C14.3095 16.4614 14.1723 16.3289 13.6213 16.3134C12.9509 16.2946 12.4015 15.5084 12.2047 14.2864C12.1051 13.6678 12.1354 13.6163 12.5992 13.6163C14.2625 13.6163 16.0303 12.2098 16.9113 10.1854L17.1286 9.6859L17.8541 10.4563C18.2532 10.88 18.8889 11.4619 19.2669 11.7494ZM23.4907 24.118C23.4968 24.6691 23.5051 25.1484 23.5092 25.1832C23.5133 25.218 23.1574 25.6215 22.7182 26.0798L21.9199 26.913L21.5679 26.7778C21.0875 26.5933 19.3053 26.5919 18.8039 26.7756L18.4699 26.8979L17.6945 26.1236L16.9191 25.3494L16.9402 24.2884C16.9652 23.0384 16.9224 23.13 17.3538 23.4035C19.0631 24.4875 21.2399 24.4607 23.017 23.3337C23.4939 23.0312 23.4783 23.0053 23.4907 24.118ZM15.8947 27.0718L17.1771 28.3558L17.091 28.9087C16.9191 30.0122 17.0748 30.9518 17.549 31.6725L17.8317 32.1022L17.4086 34.4816L16.9856 36.861L16.5403 36.8134C13.8182 36.5222 10.212 35.5234 7.42417 34.2884L6.99142 34.0967L7.01925 32.0018L7.04715 29.9069L7.28324 29.2018C8.15172 26.6084 9.44717 25.8015 12.756 25.7928L14.6122 25.7879L15.8947 27.0718ZM29.828 25.9005C32.2326 26.5129 33.272 28.4266 33.2738 32.2447L33.2748 34.1373L32.6632 34.4127C31.1276 35.1044 29.1677 35.7717 27.4872 36.1751C25.8474 36.5687 23.3311 36.956 23.3311 36.8148C23.3311 36.7863 23.1474 35.756 22.9229 34.5254C22.4504 31.9354 22.4617 32.0695 22.6945 31.7927C23.1032 31.3071 23.2127 30.8299 23.2164 29.5181L23.2198 28.313L24.4806 27.0504L25.7415 25.7879H27.5636C28.949 25.7879 29.4917 25.8149 29.828 25.9005ZM21.0708 28.7903C21.8179 29.5373 21.227 30.8346 20.1398 30.8346C19.0962 30.8346 19.0265 30.7649 19.0265 29.7214C19.0265 28.6342 20.3238 28.0432 21.0708 28.7903ZM20.7684 33.525C21.233 36.1222 21.3771 36.9602 21.3622 36.9794C21.3307 37.0201 19.0831 37.0017 19.0418 36.9604C19.0069 36.9255 19.1169 36.2415 19.6359 33.2652L19.7104 32.8385H20.1779H20.6456L20.7684 33.525Z" fill="#FF7A00"/>
</svg>
