<svg width="40" height="40" viewBox="0 0 40 40" fill="none" xmlns="http://www.w3.org/2000/svg">
<g clip-path="url(#clip0_1741_12816)">
<path fill-rule="evenodd" clip-rule="evenodd" d="M7.18523 1.10102L6.90961 1.26094L6.72437 1.53125L6.53914 1.80164L6.50656 2.17031L6.47406 2.53906L6.61727 2.81289L6.76047 3.08672L7.57211 4.20289L8.38367 5.31906L8.60945 5.50906L8.83523 5.69898L9.14414 5.78219L9.45312 5.86539L9.76211 5.78219L10.071 5.69898L10.3196 5.48984L10.5681 5.2807L10.6747 5.0257L10.7812 4.77062V4.4607V4.15078L10.7112 3.96992L10.6411 3.78906L9.73242 2.53977L8.82383 1.29039L8.53297 1.11437L8.24219 0.938281L7.85156 0.939687L7.46094 0.941094L7.18523 1.10102ZM31.467 1.11437L31.1762 1.29039L30.2676 2.53977L29.3589 3.78906L29.2888 3.96992L29.2188 4.15078V4.4607V4.77062L29.3253 5.0257L29.4319 5.2807L29.6804 5.48984L29.929 5.69898L30.2379 5.78219L30.5469 5.86539L30.8559 5.78219L31.1648 5.69898L31.3905 5.50906L31.6163 5.31906L32.4279 4.20289L33.2395 3.08672L33.3776 2.81586L33.5156 2.54508V2.29328V2.04141L33.4325 1.82148L33.3495 1.60156L33.1395 1.37977L32.9297 1.15789L32.7188 1.04773L32.5077 0.9375L32.1328 0.937891L31.7578 0.938281L31.467 1.11437ZM19.2384 3.08945L18.8282 3.19992L18.5352 3.34977L18.2422 3.49961L17.8643 3.83273L17.4864 4.16586L15.9027 7.34289L14.3189 10.5198L14.2884 10.6109L14.2578 10.702L10.7422 11.2141L7.22656 11.7262L6.75781 11.9441L6.28906 12.162L5.91297 12.5283L5.5368 12.8945L5.30102 13.3985L5.06516 13.9025L5.0025 14.3536L4.93977 14.8047L5.01273 15.2667L5.08563 15.7288L5.28977 16.1602L5.49383 16.5916L7.45398 18.5116L9.41406 20.4316L10.0499 21.0556L10.6859 21.6797L10.1058 25L9.5257 28.3203L9.54875 28.9453L9.57187 29.5703L9.81188 30.0784L10.0519 30.5864L10.4191 30.9536L10.7862 31.3208L11.2966 31.572L11.807 31.8233L12.4245 31.8591L13.042 31.8948L13.4155 31.801L13.7891 31.7073L16.8951 30.0711L20.001 28.4348L23.112 30.0723L26.223 31.7097L26.5905 31.8023L26.958 31.8948L27.5755 31.8591L28.193 31.8233L28.6901 31.5786L29.1872 31.3339L29.5673 30.9599L29.9474 30.5859L30.1838 30.0816L30.4203 29.5774L30.4481 28.9488L30.4759 28.3203L29.8978 25L29.3198 21.6797L31.3201 19.7327L33.3203 17.7856L33.9152 17.1843L34.5102 16.583L34.7123 16.1559L34.9144 15.7288L34.9873 15.2667L35.0602 14.8047L34.9975 14.3536L34.9348 13.9025L34.7071 13.4159L34.4794 12.9292L34.0954 12.5452L33.7114 12.1613L33.2424 11.9427L32.7734 11.7241L29.2578 11.2109L25.7422 10.6976L25.7101 10.6041L25.678 10.5106L24.1296 7.40367L22.5813 4.2968L22.2702 3.9593L21.9591 3.62188L21.5792 3.41508L21.1992 3.20828L20.7395 3.08852L20.2797 2.96875L19.9641 2.97391L19.6484 2.97906L19.2384 3.08945ZM20.2712 5.83984L20.3846 5.97656L22.0302 9.29688L23.6759 12.6172L23.8236 12.82L23.9713 13.0229L24.2366 13.1488L24.5018 13.2746L28.2861 13.8248L32.0703 14.375L32.207 14.5399L32.3438 14.7048L32.3463 14.7938L32.3488 14.8828L29.4992 17.6953L26.6497 20.5078L26.5594 20.8241L26.4691 21.1404L27.1017 24.8232L27.7344 28.5061V28.7296V28.9531L27.6406 29.0469L27.5469 29.1406H27.3627H27.1786L23.8041 27.3633L20.4297 25.5859H20H19.5703L16.1998 27.3633L12.8292 29.1406H12.6412H12.4531L12.3594 29.0469L12.2656 28.9531V28.7296V28.5061L12.8983 24.8232L13.5309 21.1404L13.4411 20.8241L13.3512 20.5078L10.5016 17.6953L7.6518 14.8828L7.65406 14.7938L7.65625 14.7048L7.79297 14.5402L7.92969 14.3756L11.708 13.828L15.4862 13.2803L15.7438 13.158L16.0014 13.0358L16.1213 12.9034L16.241 12.7711L17.9719 9.2957L19.7028 5.82031L19.7928 5.76289L19.8828 5.70555L20.0203 5.7043L20.1578 5.70312L20.2712 5.83984ZM2.1875 22.903L0.742188 23.3745L0.499297 23.5579L0.256328 23.7412L0.128203 24.0113L0 24.2814V24.5966V24.9117L0.0833594 25.1316L0.166641 25.3516L0.337266 25.5348L0.507812 25.718L0.732734 25.8349L0.957656 25.952L1.27961 25.9556L1.60156 25.9593L3.10219 25.4773L4.60289 24.9954L4.83117 24.8033L5.05945 24.6112L5.18602 24.3445L5.3125 24.078L5.31125 23.7382L5.30992 23.3984L5.13383 23.0875L4.95773 22.7766L4.64687 22.6005L4.33594 22.4245L3.98438 22.428L3.63281 22.4314L2.1875 22.903ZM35.3742 22.5818L35.0845 22.7348L34.8859 23.0735L34.6875 23.4122V23.7451V24.078L34.814 24.3445L34.9405 24.6112L35.1665 24.8013L35.3923 24.9914L36.8954 25.475L38.3984 25.9586L38.7204 25.9552L39.0423 25.952L39.2673 25.8349L39.4922 25.718L39.6627 25.5348L39.8334 25.3516L39.9166 25.1316L40 24.9117V24.5966V24.2814L39.8718 24.0113L39.7437 23.7412L39.5007 23.558L39.2578 23.3747L37.7823 22.8983L36.3069 22.4219L35.9855 22.4253L35.6641 22.4288L35.3742 22.5818ZM19.3617 33.8302L19.0751 33.9816L18.893 34.237L18.7109 34.4922L18.6873 36.2624L18.6638 38.0326L18.7767 38.3029L18.8897 38.5731L19.1848 38.7983L19.48 39.0234H20H20.52L20.8152 38.7983L21.1103 38.5731L21.2233 38.3029L21.3362 38.0326L21.3127 36.2624L21.2891 34.4922L21.1067 34.2365L20.9244 33.9809L20.6216 33.8263L20.3187 33.6719L19.9836 33.6753L19.6484 33.6787L19.3617 33.8302Z" fill="#FF7A00"/>
</g>
<defs>
<clipPath id="clip0_1741_12816">
<rect width="40" height="40" fill="white"/>
</clipPath>
</defs>
</svg>
