<svg width="40" height="40" viewBox="0 0 40 40" fill="none" xmlns="http://www.w3.org/2000/svg">
<path fill-rule="evenodd" clip-rule="evenodd" d="M32.3203 3.11165V4.22337L33.7374 4.24348L35.1546 4.26367L31.912 7.45055L28.6695 10.6375L26.4495 9.52942L24.2294 8.42141L19.777 12.8733L15.3247 17.3252L13.1498 16.2385L10.9748 15.1518L6.37707 18.6021C3.84829 20.4998 1.71562 22.0981 1.63776 22.1537C1.50855 22.2461 2.03409 23.077 2.82779 24.035C2.841 24.051 4.69795 22.68 6.95427 20.9883C9.2106 19.2966 11.0966 17.8882 11.1453 17.8587C11.1959 17.828 12.2105 18.2928 13.502 18.9381L15.77 20.0714L20.2224 15.6194L24.6747 11.1675L26.8943 12.2752L29.1137 13.383L32.925 9.61893L36.7363 5.85485L36.7565 7.2673L36.7766 8.67969H37.8884H39V5.33984V2H35.6602H32.3203V3.11165ZM30.0195 25.3789V35.3984H28.9062H27.793V27.6055V19.8125H24.4531H21.1133V27.6055V35.3984H20H18.8867V29.832V24.2656H15.5469H12.207V29.832V35.3984H11.0938H9.98047V32.0586V28.7188H6.64062H3.30078V32.0586V35.3984H2.15039H1V36.5117V37.625H20H39V36.5117V35.3984H37.8496H36.6992V25.3789V15.3594H33.3594H30.0195V25.3789ZM34.4727 26.4922V35.3984H33.3594H32.2461V26.4922V17.5859H33.3594H34.4727V26.4922ZM25.5664 28.7188V35.3984H24.4531H23.3398V28.7188V22.0391H24.4531H25.5664V28.7188ZM16.6602 30.9453V35.3984H15.5469H14.4336V30.9453V26.4922H15.5469H16.6602V30.9453ZM7.75391 33.1719V35.3984H6.64062H5.52734V33.1719V30.9453H6.64062H7.75391V33.1719Z" fill="#FF7A00"/>
</svg>
