<svg width="40" height="40" viewBox="0 0 40 40" fill="none" xmlns="http://www.w3.org/2000/svg">
<path fill-rule="evenodd" clip-rule="evenodd" d="M21.6133 1.14807L21.3714 1.29554L21.2239 1.53742L21.0764 1.7793L21.0761 2.11959L21.0758 2.45981L21.7508 3.64107L22.4258 4.82227L22.5486 4.96239L22.6716 5.10252L22.9104 5.2036L23.1492 5.30469L23.3928 5.30454L23.6364 5.30446L23.8947 5.17466L24.153 5.04492L24.3214 4.79273L24.4899 4.54053V4.19564V3.85074L23.8196 2.66977L23.1492 1.4888L23.0219 1.34809L22.8946 1.20744L22.694 1.10376L22.4934 1L22.1743 1.0003L21.8551 1.00052L21.6133 1.14807ZM31.1179 1.14517L30.8808 1.28982L30.7703 1.4603L30.6598 1.63086L30.024 2.74021L29.3883 3.84955V4.13916V4.42876L29.5088 4.68266L29.6293 4.93649L29.8523 5.09532L30.0753 5.25407L30.4246 5.28762L30.7739 5.32124L31.0051 5.20167L31.2362 5.08218L31.4164 4.84089L31.5966 4.59961L32.1887 3.56055L32.7809 2.52148L32.8202 2.30818L32.8596 2.0948L32.7868 1.82576L32.7139 1.55664L32.5541 1.3826L32.3942 1.20855L32.1938 1.10428L31.9934 1L31.6743 1.0003L31.3551 1.00052L31.1179 1.14517ZM25.3658 6.86536L25.017 6.92414L24.634 7.13255L24.2511 7.34095L24.0036 7.63011L23.7561 7.91927L23.6086 8.23299L23.4612 8.54678L23.3779 9.17089L23.2946 9.79492L23.151 10.4092L23.0074 11.0235L22.7508 11.6432L22.4943 12.2629L22.1519 12.8421L21.8095 13.4213L21.3413 14.0209L20.8731 14.6204L20.1766 15.2835L19.4801 15.9466L18.7242 16.5075L17.9682 17.0684L17.2201 17.5346L16.4721 18.0008L15.1558 18.7007L13.8395 19.4007L13.8023 18.9396L13.7649 18.4785L13.6234 18.2443L13.4818 18.0101L13.2052 17.8546L12.9287 17.6992H7.88436H2.84001L2.59464 17.8662L2.34927 18.0332L2.19401 18.2427L2.03874 18.4522L2.01937 28.2557L2 38.0591L2.14925 38.3675L2.29851 38.6758L2.58692 38.8379L2.87534 39H6.8018H10.7283L11.165 38.8862L11.6018 38.7724L11.9677 38.5733L12.3335 38.3743L12.6513 38.0945L12.9691 37.8148L13.2023 37.4514L13.4355 37.0879L14.2491 37.4146L15.0627 37.7413L15.9726 38.0033L16.8825 38.2654L17.5134 38.4059L18.1442 38.5463L19.1833 38.6961L20.2223 38.8458L21.2614 38.9226L22.3005 38.9994L27.7409 38.9997L33.1813 39L33.69 38.8843L34.1987 38.7686L34.6324 38.5082L35.0661 38.2479L35.2803 38.0487L35.4945 37.8496L35.7824 37.4096L36.0703 36.9697L36.2176 36.4927L36.3649 36.0156L36.363 35.4483L36.361 34.8809L36.1895 34.3984L36.0179 33.916L35.9729 33.8047L35.9278 33.6934L36.2834 33.4228L36.6391 33.1522L36.9481 32.6896L37.2571 32.2268L37.4144 31.7088L37.5718 31.1909L37.5359 30.506L37.5002 29.8211L37.3025 29.3895L37.1049 28.9578L37.1246 28.9459L37.1442 28.9339L37.4964 28.6517L37.8485 28.3694L38.1451 27.9254L38.4416 27.4812L38.5908 26.9985L38.7399 26.5156V25.9273V25.3391L38.5848 24.8775L38.4297 24.416L38.1525 24.0003L37.8753 23.5846L38.0546 23.3695L38.234 23.1543L38.4475 22.709L38.6609 22.2637L38.7527 21.7256L38.8443 21.1875L38.756 20.6723L38.6676 20.1571L38.4922 19.7631L38.3167 19.3691L38.0026 18.9739L37.6885 18.5786L37.2362 18.2863L36.7838 17.9939L36.3068 17.8465L35.8297 17.6992H32.4235H29.0173V17.6606V17.622L29.342 16.9741L29.6669 16.3262L29.8937 15.6582L30.1205 14.9902L30.2417 14.3965L30.3628 13.8027L30.4405 12.9121L30.5183 12.0215L30.4771 11.4176L30.4358 10.8136L30.3139 10.3414L30.1921 9.86914L29.9236 9.34961L29.6551 8.83008L29.0579 8.22935L28.4606 7.6287L27.904 7.3581L27.3473 7.08742L26.902 6.98173L26.4567 6.87605L26.0856 6.84131L25.7145 6.80658L25.3658 6.86536ZM26.7646 9.34864L27.1466 9.52002L27.4587 9.83203L27.7707 10.144L27.9637 10.5632L28.1567 10.9824L28.1873 11.6626L28.218 12.3427L28.1297 13.1018L28.0415 13.8608L27.8565 14.4998L27.6714 15.1387L27.4282 15.6953L27.1849 16.252L26.7757 16.957L26.3665 17.6621L25.2478 17.6992L24.1291 17.7363L23.9198 17.89L23.7106 18.0437L23.5767 18.2982L23.4426 18.5527L23.4735 18.9108L23.5044 19.2689L23.6524 19.4674L23.8003 19.666L24.0524 19.8145L24.3044 19.9629L30.0324 20L35.7604 20.0371L35.9653 20.1901L36.1702 20.3432L36.3168 20.5396L36.4635 20.736L36.4915 21.1288L36.5196 21.5215L36.3495 21.8128L36.1794 22.1041L35.8523 22.2767L35.5251 22.4492H34.0811H32.6371L32.3486 22.6113L32.0602 22.7734L31.9027 23.0989L31.7452 23.4242L31.7859 23.7282L31.8267 24.0321L31.9698 24.224L32.1128 24.416L32.3649 24.5645L32.6169 24.7129L34.1755 24.75L35.7341 24.7871L35.9368 24.9246L36.1397 25.0622L36.298 25.3184L36.4563 25.5745V25.9287V26.2828L36.3434 26.4999L36.2306 26.7168L36.0565 26.8788L35.8825 27.0409L35.6736 27.12L35.4646 27.1992H34.094H32.7234L32.4811 27.3005L32.2389 27.4017L32.0412 27.6366L31.8435 27.8716L31.7923 28.1442L31.7412 28.4168L31.8451 28.7104L31.9489 29.004L32.2321 29.2318L32.5153 29.4597L33.4975 29.4984L34.4798 29.5371L34.6987 29.6796L34.9176 29.8221L35.029 29.9722L35.1403 30.1222L35.2209 30.4234L35.3016 30.7246L35.2444 30.9787L35.1873 31.2326L35.0479 31.4194L34.9084 31.606L34.7036 31.7591L34.4988 31.9121L33.4836 31.9492L32.4684 31.9863L32.2261 32.1592L31.9838 32.332L31.8615 32.5674L31.7394 32.8027L31.739 33.1087L31.7386 33.4146L31.8835 33.6627L32.0284 33.9107L32.2599 34.046L32.4916 34.1813L32.9249 34.2519L33.3582 34.3224L33.5442 34.46L33.7301 34.5976L33.8971 34.843L34.0641 35.0884V35.4746V35.8608L33.8971 36.1062L33.7301 36.3516L33.5207 36.5068L33.3113 36.6621L29.216 36.6992L25.1208 36.7363L23.0426 36.6844L20.9645 36.6326L20.0368 36.5149L19.1091 36.3973L18.1956 36.2099L17.2821 36.0224L16.3401 35.7235L15.3981 35.4245L14.6003 35.0901L13.8024 34.7556V28.343V21.9304L15.2716 21.1951L16.7409 20.4597L17.4797 20.0368L18.2184 19.6139L19.1462 18.9965L20.0739 18.3791L20.7042 17.8722L21.3344 17.3652L22.0541 16.642L22.7738 15.9188L23.3666 15.1292L23.9595 14.3397L24.4025 13.4774L24.8454 12.6152L25.0443 12.0586L25.243 11.502L25.384 10.9082L25.525 10.3145L25.6022 9.76776L25.6793 9.22099L25.7231 9.15018L25.7668 9.07938L26.0747 9.12836L26.3825 9.17727L26.7646 9.34864ZM16.8679 9.38345L16.6308 9.52811L16.5129 9.70809L16.3949 9.88807L16.3299 10.1147L16.2649 10.3412L16.3267 10.6153L16.3885 10.8892L16.6288 11.1371L16.8691 11.385L17.2758 11.4694L17.6825 11.5539L18.8782 11.5279L20.0739 11.502L20.3334 11.3495L20.5929 11.1971L20.7602 10.9489L20.9274 10.7007L20.9271 10.3591L20.9269 10.0176L20.7793 9.7757L20.6319 9.53382L20.39 9.38635L20.1481 9.2388H18.6266H17.1051L16.8679 9.38345ZM33.5499 9.36831L33.2954 9.49805L33.1417 9.70757L32.988 9.91716V10.3516V10.786L33.1442 10.9956L33.3003 11.2051L33.5524 11.3535L33.8044 11.502H35.2887H36.7731L37.0329 11.3401L37.2926 11.1782L37.4368 10.9334L37.581 10.6885V10.3342V9.97987L37.43 9.77607L37.279 9.57227L37.0336 9.40527L36.7883 9.23828L35.2963 9.23843L33.8044 9.2385L33.5499 9.36831ZM11.5016 27.9304V35.8608L11.3329 36.1113L11.1641 36.3617L10.9137 36.5304L10.6633 36.6992H9.85784H9.05241V34.8043V32.9093L8.94895 32.6617L8.84549 32.4141L8.59396 32.2222L8.34236 32.0303L8.04794 31.9856L7.75359 31.9408L7.4196 32.112L7.08562 32.2832L6.91862 32.6144L6.75163 32.9455V34.8224V36.6992H5.52702H4.30241V28.3496V20H7.90202H11.5016V27.9304Z" fill="#FF7A00"/>
</svg>
