<svg width="40" height="40" viewBox="0 0 40 40" fill="none" xmlns="http://www.w3.org/2000/svg">
<g clip-path="url(#clip0_1741_12805)">
<path fill-rule="evenodd" clip-rule="evenodd" d="M18.9234 0.185625L18.4333 0.37125L18.1302 0.571875L17.827 0.7725L17.5382 1.06938L17.2495 1.36617L17.0623 1.68492L16.8752 2.00367L16.7186 2.45883L16.562 2.91406V3.51445V4.11477L16.6783 4.49828L16.7946 4.8818L16.7955 4.92969L16.7963 4.97766L16.308 5.07797L15.8198 5.17836L14.9604 5.44273L14.101 5.70719L13.5151 5.94875L12.9291 6.19039L12.1574 6.57695L11.3857 6.96359L10.7512 7.36102L10.1166 7.75852L9.41352 8.28594L8.71039 8.81336L7.93531 9.54258L7.16031 10.2718L6.50453 11.0534L5.84883 11.8349L5.30789 12.6452L4.76695 13.4556L4.26609 14.4421L3.76531 15.4287L3.49258 16.1368L3.21984 16.8449L2.98195 17.6993L2.74414 18.5537L2.62625 19.1787L2.50836 19.8037L2.46078 20.3115L2.41313 20.8193L2.37195 21.0341L2.33078 21.249L1.57531 21.2493L0.819766 21.2495L0.565156 21.4048L0.310547 21.5601L0.155313 21.8147L0 22.0693V22.4209V22.7724L0.155313 23.027L0.310547 23.2816L0.565156 23.4369L0.819766 23.5922H19.9995H39.1791L39.4338 23.4369L39.6884 23.2816L39.8436 23.027L39.9989 22.7724V22.4209V22.0693L39.8436 21.8147L39.6884 21.5601L39.4338 21.4048L39.1791 21.2495L38.4209 21.2493L37.6628 21.249L37.6234 20.9951L37.5841 20.7412L37.5382 20.2724L37.4922 19.8037L37.3363 19.0105L37.1802 18.2173L36.9573 17.448L36.7344 16.6787L36.4484 15.9365L36.1625 15.1943L35.654 14.2177L35.1455 13.2412L34.6706 12.538L34.1957 11.8349L33.6081 11.1082L33.0205 10.3815L32.1957 9.59398L31.3709 8.80641L30.6266 8.24664L29.8823 7.68695L29.1696 7.2407L28.457 6.79445L27.5667 6.37133L26.6765 5.9482L25.6622 5.60336L24.6479 5.25859L23.9811 5.11484L23.3144 4.97117L23.4607 4.53758L23.6071 4.10406L23.5757 3.39922L23.5443 2.6943L23.3681 2.24586L23.1919 1.79734L22.8922 1.39852L22.5925 0.999688L22.1937 0.7L21.7948 0.400313L21.3463 0.22375L20.8979 0.0472656L20.1557 0.0235937L19.4135 0L18.9234 0.185625ZM20.3976 2.42086H20.5486L20.8251 2.67477L21.1015 2.92867L21.1673 3.22164L21.233 3.51461L21.1684 3.8007L21.104 4.0868L20.8769 4.31391L20.6498 4.54102L20.3637 4.60547L20.0776 4.67L19.7915 4.60547L19.5054 4.54102L19.2783 4.31391L19.0512 4.0868L18.9867 3.8007L18.9222 3.51461L18.9867 3.22852L19.0512 2.94242L19.2807 2.71297L19.5102 2.48344L19.7744 2.42125L20.0385 2.35906L20.1426 2.38992L20.2466 2.42086H20.3976ZM22.3432 7.23602L23.0854 7.35164L23.8419 7.5425L24.5984 7.73344L25.2091 7.96086L25.8198 8.18836L26.433 8.47023L27.0463 8.75211L27.7186 9.14922L28.3909 9.54641L29.0976 10.0731L29.8041 10.5999L30.5225 11.2793L31.2409 11.9588L31.782 12.639L32.323 13.3193L32.7977 14.0441L33.2723 14.769L33.7008 15.6457L34.1292 16.5224L34.411 17.3393L34.6929 18.1562L34.8823 19.019L35.0718 19.8818L35.1528 20.4929L35.2338 21.1041V21.1765V21.249H19.9926H4.75133L4.79516 20.956L4.83898 20.663L4.88875 20.2724L4.93852 19.8818L5.08812 19.2177L5.23781 18.5537L5.51852 17.6943L5.79922 16.8349L6.26172 15.8808L6.72422 14.9266L7.25406 14.123L7.78398 13.3193L8.36969 12.6162L8.95547 11.913L9.61422 11.2998L10.2729 10.6866L10.976 10.1577L11.6791 9.62883L12.226 9.29305L12.7729 8.95734L13.7104 8.51102L14.6479 8.06476L15.3901 7.82258L16.1323 7.58039L16.7963 7.4282L17.4604 7.27602L18.1635 7.19055L18.8666 7.10516L19.2573 7.07766L19.6479 7.05016L20.6245 7.08531L21.601 7.12039L22.3432 7.23602ZM12.4745 25.623L11.7856 25.7763L11.1212 26.0472L10.4567 26.3181L9.89609 26.6687L9.33539 27.0194L8.93477 27.3627L8.53422 27.7062L8.28219 27.9932L8.03016 28.2802L5.5968 28.2805L3.16352 28.2808L2.90891 28.4361L2.6543 28.5913L2.49906 28.8459L2.34375 29.1005V34.1396V39.1787L2.49906 39.4333L2.6543 39.6879L2.90891 39.8431L3.16352 39.9984L15.4364 39.9987L27.7094 39.999L28.1646 39.8423L28.6198 39.6858L28.9776 39.4799L29.3354 39.2741L32.9544 35.6717L36.5734 32.0693L36.9138 31.6195L37.2543 31.1698L37.4346 30.7211L37.615 30.2724V29.4521V28.6318L37.4347 28.1834L37.2544 27.7348L36.9547 27.336L36.655 26.9372L36.2562 26.6375L35.8573 26.3378L35.4088 26.162L34.9604 25.9861L34.2806 25.9537L33.6008 25.9212L33.1002 26.0878L32.5997 26.2544L32.2175 26.4951L31.8354 26.7357L29.9514 28.6072L28.0674 30.4787L27.8308 30.063L27.5941 29.6474L27.2148 29.271L26.8354 28.8947L26.2538 28.607L25.6722 28.3193L23.1679 28.2802L20.6635 28.2412L20.4177 28.0849L20.1718 27.9287L19.4802 27.3597L18.7885 26.7906L17.851 26.3272L16.9135 25.8638L16.2885 25.6988L15.6635 25.5338L14.4135 25.5017L13.1635 25.4695L12.4745 25.623ZM15.6034 28.0103L16.0901 28.121L16.5945 28.3498L17.0991 28.5785L17.4359 28.8115L17.7729 29.0445L18.3979 29.5659L19.0229 30.0872L19.5307 30.3359L20.0385 30.5846L22.5916 30.6238L25.1445 30.663L25.3602 30.8241L25.5757 30.9852L25.7263 31.1869L25.8769 31.3885V31.7959V32.2032L25.7263 32.4048L25.5757 32.6065L25.3602 32.7676L25.1445 32.9287L22.1228 32.9689L19.101 33.0091L18.7495 33.1577L18.3979 33.3061L17.9789 33.5801L17.5599 33.854L17.2592 34.2345L16.9584 34.615L16.9063 34.8927L16.8542 35.1703L16.9444 35.4712L17.0345 35.772L17.318 36.0056L17.6014 36.2393L17.8921 36.2884L18.1827 36.3375L18.4856 36.2114L18.7885 36.0853L19.1099 35.7707L19.4313 35.4561L19.7349 35.3856L20.0385 35.3152L23.217 35.3134L26.3955 35.3115L26.6155 35.2291L26.8354 35.1467L30.2013 31.7863L33.5671 28.4259L33.8536 28.3613L34.1401 28.2967L34.4262 28.3612L34.7123 28.4257L34.9394 28.6528L35.1665 28.8799L35.2309 29.166L35.2955 29.4521L35.2305 29.74L35.1656 30.0279L31.4252 33.7684L27.6846 37.5089L27.3772 37.5802L27.0698 37.6515L18.3002 37.6534L9.5307 37.6552V33.9116V30.1678L9.93352 29.7271L10.3363 29.2864L10.8244 28.938L11.3125 28.5898L11.8295 28.3554L12.3463 28.121L12.833 28.01L13.3198 27.8989L13.5932 27.8636L13.8666 27.8282L14.4916 27.8639L15.1166 27.8996L15.6034 28.0103ZM7.18695 34.1396V37.6552H5.93695H4.68695V34.1396V30.624H5.93695H7.18695V34.1396Z" fill="#FF7A00"/>
</g>
<defs>
<clipPath id="clip0_1741_12805">
<rect width="40" height="40" fill="white"/>
</clipPath>
</defs>
</svg>
