<svg width="60" height="60" viewBox="0 0 60 60" fill="none" xmlns="http://www.w3.org/2000/svg">
<g clip-path="url(#clip0_1886_14020)">
<path fill-rule="evenodd" clip-rule="evenodd" d="M26.8326 0.163919C8.19037 3.00536 1.63631 26.7255 16.1972 38.6549C16.6948 39.0624 16.6948 39.0624 13.9381 46.9726C10.4393 57.0123 10.292 56.0106 15.1905 55.4899C18.5485 55.1329 18.5485 55.1329 21.0298 57.5273C23.5869 59.9948 24.0299 60.2991 24.396 59.8399C24.4628 59.756 25.7498 56.1411 27.256 51.8066C30.5144 42.4293 29.5944 42.4293 32.8548 51.8066C34.3619 56.1411 35.649 59.756 35.7154 59.8399C36.0794 60.3 36.524 59.9943 39.0825 57.5254C41.566 55.1292 41.566 55.1292 44.9219 55.488C49.821 56.0118 49.674 57.0124 46.173 46.9726C43.4146 39.0624 43.4146 39.0624 43.9126 38.6549C60.8868 24.7635 48.5051 -3.13948 26.8326 0.163919Z" fill="#E4E4E4"/>
<path fill-rule="evenodd" clip-rule="evenodd" d="M26.8323 0.16393C8.18913 3.00549 1.63753 26.7157 16.1964 38.6549C16.6934 39.0624 16.6934 39.0624 13.9388 46.9726C10.4579 56.9686 10.3589 56.0083 14.8205 55.5182C16.4641 55.3376 17.9934 55.1883 18.219 55.1865C18.5956 55.1835 18.8305 55.379 21.0901 57.5776C24.1703 60.5747 24.206 60.5865 24.8149 58.8085C24.9805 58.3251 25.4382 57.0068 25.8321 55.8789C26.2259 54.7509 27.3224 51.6 28.2687 48.8769C30.2752 43.1027 29.9706 43.4924 30.742 45.7128C31.0835 46.6958 31.5649 48.08 31.8118 48.789C32.0587 49.498 32.4717 50.6845 32.7295 51.4257C32.9873 52.1669 33.4095 53.3798 33.6677 54.121C33.9258 54.8623 34.4668 56.4179 34.8697 57.5781C35.982 60.7813 35.7268 60.7813 39.0198 57.5785C41.2724 55.3876 41.5154 55.1851 41.8908 55.1859C42.1164 55.1864 43.6457 55.3355 45.2893 55.517C49.197 55.9488 49.2822 55.9107 48.6246 54.0261C48.4516 53.5304 48.1087 52.5449 47.8627 51.8359C47.6166 51.1269 46.5151 47.9628 45.4149 44.8046C43.4144 39.0624 43.4144 39.0624 43.9124 38.6549C60.8861 24.7622 48.5049 -3.13947 26.8323 0.16393Z" fill="#9E9E9E"/>
<path fill-rule="evenodd" clip-rule="evenodd" d="M26.8319 0.163577C5.71681 3.3819 1.31971 31.9541 20.5038 41.2834C32.896 47.3097 47.8898 40.417 51.2095 27.1676C54.9999 12.0398 42.1683 -2.17408 26.8319 0.163577Z" fill="#FFFF00"/>
<path fill-rule="evenodd" clip-rule="evenodd" d="M26.8319 0.163577C5.71681 3.3819 1.31971 31.9541 20.5038 41.2834C32.896 47.3097 47.8898 40.417 51.2095 27.1676C54.9999 12.0398 42.1683 -2.17408 26.8319 0.163577Z" fill="white"/>
<path fill-rule="evenodd" clip-rule="evenodd" d="M27.4769 0.0575102C11.3515 2.11813 2.88462 20.3988 11.8462 33.8052C21.6765 48.511 44.4699 45.8594 50.5546 29.3022C56.1263 14.1412 43.4062 -1.97804 27.4769 0.0575102Z" fill="#E0E0E0"/>
<path fill-rule="evenodd" clip-rule="evenodd" d="M28.6485 4.67382C10.3964 6.13245 7.08812 31.8674 24.3712 37.9468C43.7733 44.7715 56.2819 17.6209 38.6611 6.92979C36.5283 5.63569 30.2138 3.95745 29.7741 4.56776C29.7673 4.57714 29.2608 4.62495 28.6485 4.67382ZM31.9834 10.7067C35.7067 11.6766 37.5916 15.9316 35.7928 19.3064C35.5997 19.6687 33.7909 21.9154 31.7733 24.299C28.105 28.6328 28.105 28.6328 31.8631 28.6914C35.0656 28.7413 35.6732 28.7787 35.9727 28.9439C37.692 29.8923 37.398 32.3717 35.504 32.8962C34.8747 33.0705 25.2519 33.0754 24.6265 32.9017C23.0598 32.4667 22.6275 30.7339 23.4737 28.2812C23.9384 26.9346 24.2566 26.5 28.0627 22.0117C32.2205 17.1088 32.0534 17.3254 32.132 16.7386C32.3635 15.013 30.3021 14.2178 28.901 15.4922C28.4885 15.8675 28.2868 16.3337 28.1651 17.193C27.7852 19.876 24.2522 20.0676 23.89 17.4249C23.348 13.4703 27.9446 9.65476 31.9834 10.7067Z" fill="#9E9E9E"/>
</g>
<defs>
<clipPath id="clip0_1886_14020">
<rect width="60" height="60" fill="white"/>
</clipPath>
</defs>
</svg>
