<svg width="36" height="36" viewBox="0 0 36 36" fill="none" xmlns="http://www.w3.org/2000/svg">
<g id="add">
<g id="Group 410">
<path id="add 1 (Traced)" fill-rule="evenodd" clip-rule="evenodd" d="M16.815 3.05241C14.0055 3.34807 11.4161 5.1363 10.1069 7.68511C9.7527 8.37463 9.40673 9.35834 9.26397 10.0818C9.12999 10.7605 9.14839 12.6158 9.29574 13.295C9.6482 14.9189 10.3788 16.3214 11.4866 17.5004C11.7663 17.7981 12.1692 18.1706 12.3819 18.3282C12.7687 18.6148 12.8461 18.7103 12.6915 18.7103C12.5108 18.7103 11.0381 19.4925 10.3203 19.9699C6.50654 22.5056 4.27173 26.4271 4.01256 31.0381C3.94984 32.1541 4.11082 32.5565 4.75028 32.8823C5.07052 33.0455 5.66726 33.0378 5.99202 32.8665C6.5252 32.5851 6.72433 32.1803 6.72433 31.3776C6.72433 30.7088 6.88066 29.5559 7.07023 28.8263C7.54667 26.9932 8.4604 25.3321 9.75799 23.9403C10.7283 22.8996 11.7548 22.1447 13.0604 21.5119C15.7276 20.2191 18.7109 20.0213 21.5297 20.9504C22.0627 21.1261 23.2076 21.6545 23.9495 22.0673C24.3983 22.3171 24.9307 22.3176 25.3067 22.0688C25.6953 21.8116 25.9106 21.4513 25.9429 21.0037C25.9784 20.5134 25.8773 20.2365 25.5537 19.9382C25.2703 19.677 24.0664 19.038 23.3027 18.7433L22.847 18.5675L23.2072 18.2666C23.7282 17.8313 24.4287 17.0741 24.8092 16.5353C25.4807 15.5841 26.0378 14.2371 26.2405 13.0747C26.3698 12.3332 26.3704 10.9978 26.2418 10.1986C25.8259 7.61386 24.1023 5.2338 21.7619 4.01224C20.9768 3.60247 20.6011 3.45652 19.8469 3.26816C18.7961 3.0058 17.8786 2.94047 16.815 3.05241ZM19.2235 5.90389C19.7893 6.05252 20.6434 6.43631 21.0949 6.74477C22.88 7.96454 23.8785 10.1958 23.5996 12.3424C23.2853 14.7629 21.6577 16.643 19.2875 17.3234C18.6262 17.5132 16.9833 17.532 16.3502 17.357C15.2195 17.0445 14.253 16.4894 13.5336 15.7395C12.4193 14.578 11.8786 13.2515 11.876 11.6734C11.8741 10.5058 12.0527 9.78282 12.5904 8.78122C13.3706 7.32788 14.755 6.27023 16.3731 5.89128C17.0646 5.72935 17.0881 5.72724 17.9318 5.75119C18.465 5.76628 18.8914 5.81671 19.2235 5.90389ZM27.006 22.095C26.6679 22.2192 26.3912 22.4761 26.2357 22.8101C26.0896 23.1237 26.0839 23.1912 26.0833 24.6124L26.0827 26.0888L24.5365 26.1089C23.0222 26.1285 22.9838 26.1322 22.6745 26.2916C21.9193 26.6806 21.7199 27.7305 22.2801 28.3685C22.6623 28.8038 22.8002 28.8322 24.5385 28.8338L26.0827 28.8352V30.2903C26.0827 31.8298 26.1103 32.0204 26.3871 32.3929C26.8582 33.027 28.1076 32.9972 28.5496 32.3413C28.7863 31.99 28.8202 31.729 28.8205 30.2521L28.8209 28.8352L30.2696 28.8348C31.1342 28.8347 31.8209 28.8061 31.9728 28.7638C32.1222 28.7224 32.3358 28.5845 32.4902 28.4299C33.2033 27.7157 32.877 26.411 31.9253 26.1714C31.7447 26.1259 31.0861 26.097 30.2296 26.097H28.8291L28.809 24.5528L28.7891 23.0086L28.6122 22.7079C28.3001 22.1768 27.556 21.8929 27.006 22.095Z" fill="#FF7A00"/>
</g>
</g>
</svg>
