<svg width="24" height="24" viewBox="0 0 24 24" fill="none" xmlns="http://www.w3.org/2000/svg">
<g clip-path="url(#clip0_1796_10764)">
<path d="M12.0004 18.7509C10.9512 18.7533 9.91188 18.5477 8.94255 18.146C7.97321 17.7444 7.09306 17.1547 6.35294 16.4109L2.46794 12.5334C2.39765 12.4637 2.34185 12.3807 2.30377 12.2894C2.2657 12.198 2.24609 12.0999 2.24609 12.0009C2.24609 11.9019 2.2657 11.8039 2.30377 11.7125C2.34185 11.6211 2.39765 11.5381 2.46794 11.4684L6.35294 7.59092C7.85085 6.09329 9.88228 5.25195 12.0004 5.25195C14.1186 5.25195 16.15 6.09329 17.6479 7.59092L21.5329 11.4684C21.6032 11.5381 21.659 11.6211 21.6971 11.7125C21.7352 11.8039 21.7548 11.9019 21.7548 12.0009C21.7548 12.0999 21.7352 12.198 21.6971 12.2894C21.659 12.3807 21.6032 12.4637 21.5329 12.5334L17.6479 16.4109C16.9078 17.1547 16.0277 17.7444 15.0583 18.146C14.089 18.5477 13.0497 18.7533 12.0004 18.7509ZM4.05794 12.0009L7.41044 15.3534C8.62924 16.568 10.2798 17.25 12.0004 17.25C13.7211 17.25 15.3716 16.568 16.5904 15.3534L19.9429 12.0009L16.5904 8.64842C15.3716 7.43383 13.7211 6.75183 12.0004 6.75183C10.2798 6.75183 8.62924 7.43383 7.41044 8.64842L4.05794 12.0009Z" fill="#C2C2C2"/>
<path d="M12 15C11.4067 15 10.8266 14.8241 10.3333 14.4944C9.83994 14.1648 9.45543 13.6962 9.22836 13.1481C9.0013 12.5999 8.94189 11.9967 9.05765 11.4147C9.1734 10.8328 9.45912 10.2982 9.87868 9.87868C10.2982 9.45912 10.8328 9.1734 11.4147 9.05765C11.9967 8.94189 12.5999 9.0013 13.1481 9.22836C13.6962 9.45543 14.1648 9.83994 14.4944 10.3333C14.8241 10.8266 15 11.4067 15 12C15 12.7957 14.6839 13.5587 14.1213 14.1213C13.5587 14.6839 12.7957 15 12 15ZM12 10.5C11.7033 10.5 11.4133 10.588 11.1666 10.7528C10.92 10.9176 10.7277 11.1519 10.6142 11.426C10.5007 11.7001 10.4709 12.0017 10.5288 12.2926C10.5867 12.5836 10.7296 12.8509 10.9393 13.0607C11.1491 13.2704 11.4164 13.4133 11.7074 13.4712C11.9983 13.5291 12.2999 13.4994 12.574 13.3858C12.8481 13.2723 13.0824 13.08 13.2472 12.8334C13.412 12.5867 13.5 12.2967 13.5 12C13.5 11.6022 13.342 11.2206 13.0607 10.9393C12.7794 10.658 12.3978 10.5 12 10.5Z" fill="#C2C2C2"/>
</g>
<defs>
<clipPath id="clip0_1796_10764">
<rect width="24" height="24" fill="white"/>
</clipPath>
</defs>
</svg>
