<svg width="20" height="20" viewBox="0 0 20 20" fill="none" xmlns="http://www.w3.org/2000/svg">
<path fill-rule="evenodd" clip-rule="evenodd" d="M8.97846 0.0594517C5.12023 0.856838 3.35287 5.24323 5.58509 8.48143C7.38686 11.0952 11.1829 11.5459 13.5775 9.43043C16.8361 6.55152 15.551 1.25842 11.3182 0.125034C10.828 -0.00622735 9.4792 -0.0440469 8.97846 0.0594517ZM10.9445 1.6752C13.5096 2.29971 14.6511 5.36733 13.1347 7.56086C11.5014 9.92357 7.8749 9.65951 6.59202 7.08451C5.13934 4.16879 7.76804 0.901827 10.9445 1.6752ZM4.25587 9.9894C3.93166 10.1367 3.20746 10.9887 2.71701 11.7999C1.94556 13.0758 1.56664 14.4128 1.56404 15.868L1.5625 16.7123L1.75073 17.095C3.6561 20.9683 16.3578 20.9683 18.2632 17.095L18.4514 16.7123L18.4499 15.868C18.4462 13.8526 17.6733 11.9414 16.2324 10.3851C15.7564 9.87103 15.3814 9.75517 15.0106 10.0076C14.4656 10.3785 14.4952 10.844 15.106 11.5128C16.4188 12.95 17.3313 15.7234 16.7625 16.5471C15.0558 19.0184 4.88485 19.0064 3.24682 16.5312C2.68087 15.6759 3.59946 12.9342 4.94215 11.471C5.29413 11.0875 5.33965 10.9961 5.33965 10.6732C5.33965 10.1231 4.76273 9.75916 4.25587 9.9894Z" fill="#FF7A00"/>
</svg>
