<svg width="36" height="36" viewBox="0 0 36 36" fill="none" xmlns="http://www.w3.org/2000/svg">
<g id="msg">
<path id="paper-plane (1) 1 (Traced)" fill-rule="evenodd" clip-rule="evenodd" d="M34.1549 2.48163C33.4597 2.73919 1.23744 16.8326 0.969835 16.9962C0.0742648 17.5436 -0.263165 18.78 0.22178 19.737C0.436866 20.1615 0.918015 20.6088 1.32309 20.761C2.13414 21.0656 9.80868 23.3374 10.0267 23.3374C10.3933 23.3374 10.863 23.0809 11.0704 22.7677C11.5879 21.9857 11.1813 20.9842 10.232 20.7023C7.73158 19.9601 3.73438 18.7379 3.69838 18.7046C3.67293 18.6809 9.37837 16.1669 16.3771 13.1177C23.3759 10.0686 29.1164 7.58801 29.1338 7.60545C29.1512 7.62288 25.7608 11.0179 21.5997 15.15C17.0777 19.6403 13.9795 22.7691 13.899 22.927C13.8007 23.1199 13.7642 23.3378 13.7642 23.7341C13.7642 24.3772 14.0946 30.8129 14.1531 31.31C14.2778 32.3693 15.2717 33.1841 16.3319 33.0961C17.0881 33.0334 17.3256 32.8469 19.0091 30.9945C19.8563 30.0622 20.5874 29.2514 20.6339 29.1925C20.7061 29.101 21.1622 29.3928 23.797 31.2168C25.4903 32.389 27.0343 33.4087 27.2282 33.4829C28.2535 33.8753 29.564 33.2514 29.9297 32.1968C30.0545 31.8368 35.9833 3.8805 35.9815 3.66049C35.9779 3.22519 35.5422 2.61973 35.1171 2.45913C34.8548 2.35999 34.4583 2.36928 34.1549 2.48163ZM29.9671 19.4031C28.6699 25.5285 27.5975 30.5511 27.584 30.5645C27.5706 30.5779 25.2157 28.9653 22.351 26.9808L17.1423 23.3726L24.714 15.7993C28.8783 11.634 32.2946 8.23503 32.3057 8.24599C32.3166 8.25703 31.2643 13.2777 29.9671 19.4031ZM17.5639 26.8976L18.5362 27.5749L17.6518 28.5515C17.1653 29.0886 16.7536 29.5143 16.7368 29.4975C16.6997 29.4603 16.5313 26.2203 16.5666 26.2203C16.5803 26.2203 17.029 26.5251 17.5639 26.8976Z" fill="#FF7A00"/>
</g>
</svg>
