<svg width="36" height="36" viewBox="0 0 36 36" fill="none" xmlns="http://www.w3.org/2000/svg">
<g id="point">
<g id="Group 409">
<path id="checkbox 1 (Traced)" fill-rule="evenodd" clip-rule="evenodd" d="M6.16844 4.11734C4.62964 4.52198 3.43109 5.76265 3.09198 7.30192C2.99989 7.7199 2.99003 9.00571 3.0066 18.472L3.02538 29.1698L3.17454 29.6058C3.62298 30.9167 4.68383 31.965 5.97648 32.3746L6.44598 32.5233H17.2779H28.1098L28.5793 32.3746C29.8915 31.9588 30.9658 30.8845 31.3816 29.5722C31.5304 29.1027 31.5304 29.1027 31.5304 23.4296V17.7563L31.347 17.4938C31.2462 17.3494 31.0522 17.1558 30.9159 17.0636C30.7052 16.9208 30.5918 16.8959 30.1546 16.8959C29.7037 16.8959 29.6089 16.9183 29.3784 17.0793C29.234 17.1801 29.0404 17.374 28.9481 17.5103L28.7805 17.7579L28.7469 23.1956C28.7206 27.4713 28.6946 28.6762 28.6255 28.8344C28.475 29.1793 28.0737 29.5343 27.7131 29.6413C27.2175 29.7885 7.33748 29.7899 6.8486 29.6427C6.41425 29.512 6.0345 29.1341 5.9074 28.7061C5.75904 28.2065 5.75904 8.33521 5.9074 7.8356C6.01444 7.47503 6.36938 7.07368 6.71426 6.92317C6.87516 6.85295 8.57842 6.8286 15.2097 6.80177L23.504 6.76824L23.7947 6.56407C24.622 5.98324 24.6219 4.80334 23.7947 4.22251L23.5039 4.01834L15.0755 4.00486C7.02164 3.99199 6.62593 3.99702 6.16844 4.11734ZM31.0944 5.47713C30.912 5.53166 29.3455 7.05899 24.0686 12.3276L17.2776 19.1079L15.5507 17.3881C14.6009 16.4422 13.7181 15.6151 13.589 15.5502C13.4491 15.4799 13.2028 15.4321 12.9797 15.4319C12.2426 15.4312 11.6511 15.9688 11.5909 16.6941C11.5333 17.3887 11.5448 17.4035 14.1753 20.0267C16.3266 22.1721 16.6046 22.4267 16.8748 22.4978C17.2137 22.5872 17.6592 22.5465 17.9329 22.4013C18.0338 22.3479 21.4409 18.9745 25.5043 14.9051L32.8924 7.50601L32.9667 7.14705C33.1967 6.03583 32.1999 5.14681 31.0944 5.47713Z" fill="#FF7A00"/>
</g>
</g>
</svg>
