<svg width="16" height="16" viewBox="0 0 16 16" fill="none" xmlns="http://www.w3.org/2000/svg">
<path d="M8.61751 1.5675L10.2784 4.49893C10.4859 4.84791 10.832 5.05729 11.178 5.19689L14.4305 5.89487C14.9841 6.03445 15.1917 6.66261 14.7765 7.08138L12.562 9.59402C12.2852 9.87322 12.1468 10.292 12.216 10.7108L12.562 14.061C12.6312 14.6194 12.0776 14.9683 11.5932 14.7589L8.54828 13.363C8.20226 13.2234 7.78706 13.2234 7.44103 13.363L4.39615 14.7589C3.91173 14.9683 3.35811 14.5495 3.42731 14.061L3.77332 10.7108C3.84253 10.292 3.70412 9.94303 3.42731 9.59402L1.21284 7.08138C0.866822 6.66261 1.07443 6.03445 1.55885 5.89487L4.81136 5.19689C5.22657 5.12709 5.50338 4.84791 5.711 4.49893L7.37186 1.5675C7.64866 1.14872 8.34066 1.14872 8.61751 1.5675Z" fill="#E4E4E4"/>
</svg>
