<svg width="20" height="20" viewBox="0 0 20 20" fill="none" xmlns="http://www.w3.org/2000/svg">
<path d="M3.96245 9.0997C7.72053 7.42799 10.2265 6.32586 11.4804 5.79332C15.0604 4.27298 15.8044 4.00886 16.2892 4.00009C16.3959 3.99825 16.6343 4.02523 16.7888 4.15317C16.9192 4.26124 16.955 4.40722 16.9722 4.50963C16.9894 4.6121 17.0108 4.84547 16.9938 5.02779C16.7998 7.10906 15.9603 12.1598 15.5332 14.4908C15.3525 15.4772 14.9967 15.8079 14.6523 15.8403C13.9036 15.9106 13.3351 15.3351 12.6101 14.8498C11.4754 14.0905 10.8345 13.6177 9.73314 12.8767C8.46038 12.0204 9.28547 11.5497 10.0108 10.7805C10.2006 10.5792 13.4991 7.51587 13.563 7.23802C13.5709 7.20323 13.5784 7.07368 13.503 7.0053C13.4276 6.93691 13.3163 6.96028 13.2361 6.97886C13.1223 7.00524 11.3097 8.22847 7.7984 10.6485C7.2839 11.0092 6.81791 11.1849 6.40039 11.1757C5.94011 11.1656 5.05472 10.9101 4.3965 10.6916C3.58918 10.4236 2.94752 10.282 3.00339 9.82694C3.0325 9.58991 3.35217 9.3475 3.96245 9.0997Z" fill="#009FE3"/>
</svg>
