<svg width="20" height="20" viewBox="0 0 20 20" fill="none" xmlns="http://www.w3.org/2000/svg">
<path d="M9.8288 14.1041H10.7849C10.7849 14.1041 11.0739 14.072 11.2209 13.9128C11.3569 13.7666 11.3519 13.4921 11.3519 13.4921C11.3519 13.4921 11.3329 12.2071 11.929 12.0178C12.516 11.8315 13.2701 13.2598 14.0691 13.8096C14.6732 14.2253 15.1322 14.1341 15.1322 14.1341L17.2693 14.1041C17.2693 14.1041 18.3874 14.035 17.8574 13.1546C17.8144 13.0825 17.5484 12.5036 16.2683 11.3137C14.9282 10.0678 15.1082 10.2701 16.7223 8.11572C17.7054 6.80367 18.0984 6.00241 17.9754 5.65987C17.8584 5.33336 17.1353 5.4195 17.1353 5.4195L14.7312 5.43352C14.7312 5.43352 14.5531 5.40948 14.4201 5.48861C14.2911 5.56673 14.2081 5.74701 14.2081 5.74701C14.2081 5.74701 13.8271 6.7626 13.3191 7.62595C12.248 9.44781 11.8189 9.54396 11.6439 9.43078C11.2369 9.16737 11.3389 8.37112 11.3389 7.80623C11.3389 6.04047 11.6059 5.30432 10.8179 5.11402C10.5559 5.05092 10.3638 5.00885 9.69479 5.00184C8.83672 4.99283 8.10967 5.00485 7.69864 5.20616C7.42462 5.34037 7.21361 5.63984 7.34262 5.65687C7.50163 5.6779 7.86165 5.75402 8.05267 6.01443C8.29969 6.34995 8.29069 7.10514 8.29069 7.10514C8.29069 7.10514 8.4327 9.18339 7.95966 9.4418C7.63464 9.61907 7.1896 9.25751 6.23453 7.60392C5.7455 6.75759 5.37547 5.82113 5.37547 5.82113C5.37547 5.82113 5.30447 5.64685 5.17746 5.55371C5.02345 5.44053 4.80743 5.40447 4.80743 5.40447L2.52126 5.4185C2.52126 5.4185 2.17824 5.42851 2.05223 5.57775C1.94022 5.71095 2.04323 5.98538 2.04323 5.98538C2.04323 5.98538 3.83336 10.1789 5.85951 12.2933C7.71864 14.2313 9.8288 14.1041 9.8288 14.1041Z" fill="#0077FF"/>
</svg>
